<?xml version="1.0" encoding="UTF-8"?>
<svg width="181px" height="54px" viewBox="0 0 181 54" version="1.1" xmlns="http://www.w3.org/2000/svg" xmlns:xlink="http://www.w3.org/1999/xlink">
    <!-- Generator: Sketch 51.3 (57544) - http://www.bohemiancoding.com/sketch -->
    <title>download-ios</title>
    <desc>Created with Sketch.</desc>
    <defs></defs>
    <g id="1.-web-layout" stroke="none" stroke-width="1" fill="none" fill-rule="evenodd">
        <g id="1.-landing-page-copy" transform="translate(-533.000000, -1440.000000)">
            <g id="section/feature" transform="translate(255.000000, 1137.000000)">
                <g id="download-ios" transform="translate(278.000000, 303.000000)">
                    <rect id="area" fill="#040507" fill-rule="nonzero" x="0" y="0" width="181" height="54" rx="7"></rect>
                    <g id="Group" transform="translate(16.000000, 10.000000)" fill="#FFFFFF">
                        <text id="iOS-Testing-App" font-family="HelveticaNeue-Bold, Helvetica Neue" font-size="14" font-weight="bold">
                            <tspan x="42" y="23">iOS Testing App</tspan>
                        </text>
                        <g id="apple" fill-rule="nonzero">
                            <path d="M20.5823682,1.12874023 C20.9427051,1.74349609 21.1503906,2.45811035 21.1503906,3.22070313 C21.1503906,3.43336914 21.1490625,3.64603516 21.1465723,3.85870117 C26.7244482,5.62261719 30.7792969,10.8464648 30.7792969,17 C30.7792969,18.0228223 30.6663232,19.0196631 30.4539063,19.9795654 C30.6393457,20.0837402 30.8242041,20.1889941 31.0083984,20.2953271 C31.6690576,20.676748 32.1842871,21.2141406 32.5364893,21.833877 C33.0127881,20.3061182 33.2695313,18.6824854 33.2695313,17 C33.2695313,9.25952148 27.8356738,2.76499023 20.5823682,1.12874023 Z" id="Shape" opacity="0.6"></path>
                            <path d="M13.4176318,1.12874023 C6.16432617,2.76499023 0.73046875,9.25952148 0.73046875,17 C0.73046875,18.6824854 0.987211914,20.3061182 1.46351074,21.833877 C1.81571289,21.2141406 2.33094238,20.676748 2.99160156,20.2953271 C3.1757959,20.1889941 3.3606543,20.0837402 3.54609375,19.9795654 C3.33367676,19.0196631 3.22070312,18.0228223 3.22070312,17 C3.22070312,10.8464648 7.27555176,5.62261719 12.8534277,3.85870117 C12.8509375,3.64603516 12.8496094,3.43336914 12.8496094,3.22070313 C12.8496094,2.45811035 13.0572949,1.74349609 13.4176318,1.12874023 Z" id="Shape" opacity="0.6"></path>
                            <path d="M26.8580078,27.4839697 C26.6715723,27.3763086 26.4858008,27.2675684 26.3006104,27.157666 C23.8476465,29.4055176 20.5813721,30.7792969 17,30.7792969 C13.4186279,30.7792969 10.1522705,29.4055176 7.69938965,27.157666 C7.51419922,27.2675684 7.32842773,27.3763086 7.14199219,27.4839697 C6.48556641,27.8629004 5.76763184,28.0405371 5.05932617,28.0380469 C8.03341309,31.2530225 12.2853223,33.2695313 17,33.2695313 C21.7146777,33.2695313 25.9665869,31.2530225 28.9406738,28.0380469 C28.2323682,28.0405371 27.5144336,27.8629834 26.8580078,27.4839697 Z" id="Shape" opacity="0.6"></path>
                            <path d="M30.1783203,21.7331055 C27.1754297,19.9993213 23.9929102,18.5585547 20.708042,17.4441748 C20.7253906,17.2984131 20.7353516,17.1504102 20.7353516,17 C20.7353516,15.4617822 19.8006006,14.1381396 18.4694043,13.5662988 C19.146748,10.1645557 19.4902344,6.68810547 19.4902344,3.22070312 C19.4902344,1.84758789 18.3731152,0.73046875 17,0.73046875 C15.6268848,0.73046875 14.5097656,1.84758789 14.5097656,3.22070312 C14.5097656,6.68818848 14.853252,10.1645557 15.5305957,13.5662988 C14.1993994,14.1381396 13.2646484,15.4617822 13.2646484,17 C13.2646484,17.1504102 13.2746094,17.2984131 13.291958,17.4441748 C10.0070898,18.5585547 6.82457031,19.9993213 3.82167969,21.7331055 C2.63250977,22.4196631 2.22369629,23.9456787 2.91025391,25.1347656 C3.37094727,25.9328027 4.2096582,26.3793848 5.07103027,26.3793848 C5.49320801,26.3793848 5.92086426,26.2720557 6.31199707,26.0461914 C9.31513672,24.3124072 12.1543359,22.2764746 14.7620264,19.9886133 C15.3860791,20.4572754 16.161123,20.7353516 17,20.7353516 C17.838877,20.7353516 18.6139209,20.4572754 19.2381396,19.9886963 C21.8458301,22.2765576 24.6850293,24.3124072 27.6880859,26.0462744 C28.0793018,26.2721387 28.506792,26.3794678 28.9290527,26.3794678 C29.7902588,26.3794678 30.6291357,25.9328027 31.0898291,25.1348486 C31.7763867,23.9455957 31.3674902,22.4196631 30.1783203,21.7331055 Z M17,18.2451172 C16.3134424,18.2451172 15.7548828,17.6865576 15.7548828,17 C15.7548828,16.3134424 16.3134424,15.7548828 17,15.7548828 C17.6865576,15.7548828 18.2451172,16.3134424 18.2451172,17 C18.2451172,17.6865576 17.6865576,18.2451172 17,18.2451172 Z" id="Shape"></path>
                        </g>
                    </g>
                </g>
            </g>
        </g>
    </g>
</svg>