<?xml version="1.0" encoding="UTF-8"?>
<svg width="181px" height="54px" viewBox="0 0 181 54" version="1.1" xmlns="http://www.w3.org/2000/svg" xmlns:xlink="http://www.w3.org/1999/xlink">
    <!-- Generator: Sketch 51.3 (57544) - http://www.bohemiancoding.com/sketch -->
    <title>download-googldplay</title>
    <desc>Created with Sketch.</desc>
    <defs>
        <polygon id="path-1" points="0 0 180.999866 0 180.999866 53.5535851 0 53.5535851"></polygon>
        <polygon id="path-3" points="0 0 180.999866 0 180.999866 53.5535851 0 53.5535851"></polygon>
        <polygon id="path-5" points="0 53.553719 181 53.553719 181 0 0 0"></polygon>
        <path d="M1.03147654,0.274016529 C0.641320988,0.686380165 0.41071358,1.32634711 0.41071358,2.15509091 L0.41071358,31.7649421 C0.41071358,32.5950248 0.641320988,33.2336529 1.03147654,33.6446777 L1.12935062,33.7424132 L17.7411284,17.1554876 L17.7411284,16.9600165 L17.7411284,16.7645455 L1.12935062,0.176280992 L1.03147654,0.274016529 Z" id="path-7"></path>
        <path d="M1.20532593,6.50008264 L1.20532593,6.69555372 L1.20532593,6.89102479 L6.74124444,12.4217851 L6.86727407,12.3521653 L13.4275185,8.63018182 C15.3005333,7.56580165 15.3005333,5.82530579 13.4275185,4.76226446 L6.86727407,1.04028099 L6.74258519,0.969322314 L1.20532593,6.50008264 Z" id="path-9"></path>
        <path d="M0.584562963,16.686 C1.2013037,17.3393554 2.22160741,17.4210248 3.37062222,16.7690083 L22.956163,5.65661157 L17.2942148,0.00133884298 L0.584562963,16.686 Z" id="path-11"></path>
        <linearGradient x1="86.2450611%" y1="17.8459102%" x2="-50.1463922%" y2="194.814367%" id="linearGradient-13">
            <stop stop-color="#FF3A44" offset="0%"></stop>
            <stop stop-color="#C31162" offset="100%"></stop>
        </linearGradient>
        <path d="M0.137649383,0.720297521 L16.8473012,17.4062975 L22.5092494,11.7510248 L2.92370864,0.638628099 C2.38473086,0.332033058 1.87390864,0.187438017 1.42073827,0.187438017 C0.905893827,0.187438017 0.464790123,0.37353719 0.137649383,0.720297521" id="path-14"></path>
    </defs>
    <g id="1.-web-layout" stroke="none" stroke-width="1" fill="none" fill-rule="evenodd">
        <g id="1.-landing-page-copy" transform="translate(-726.000000, -1440.000000)">
            <g id="section/feature" transform="translate(255.000000, 1137.000000)">
                <g id="download-googldplay" transform="translate(471.000000, 303.000000)">
                    <g id="Group-29" transform="translate(0.000000, 0.000268)">
                        <g id="Group-3">
                            <mask id="mask-2" fill="white">
                                <use xlink:href="#path-1"></use>
                            </mask>
                            <g id="Clip-2"></g>
                            <path d="M174.296162,53.5535851 L6.70356963,53.5535851 C3.01653259,53.5535851 -0.000134074074,50.5411884 -0.000134074074,46.8593702 L-0.000134074074,6.69408099 C-0.000134074074,3.01226281 3.01653259,-0.000133884298 6.70356963,-0.000133884298 L174.296162,-0.000133884298 C177.983199,-0.000133884298 180.999866,3.01226281 180.999866,6.69408099 L180.999866,46.8593702 C180.999866,50.5411884 177.983199,53.5535851 174.296162,53.5535851" id="Fill-1" fill="#000000" mask="url(#mask-2)"></path>
                        </g>
                        <g id="Group-6">
                            <mask id="mask-4" fill="white">
                                <use xlink:href="#path-3"></use>
                            </mask>
                            <g id="Clip-5"></g>
                            <path d="M174.296162,-0.000133884298 L6.70356963,-0.000133884298 C3.01653259,-0.000133884298 -0.000134074074,3.01226281 -0.000134074074,6.69408099 L-0.000134074074,46.8593702 C-0.000134074074,50.5411884 3.01653259,53.5535851 6.70356963,53.5535851 L174.296162,53.5535851 C177.983199,53.5535851 180.999866,50.5411884 180.999866,46.8593702 L180.999866,6.69408099 C180.999866,3.01226281 177.983199,-0.000133884298 174.296162,-0.000133884298 M174.296162,1.0709405 C177.401318,1.0709405 179.927273,3.59332066 179.927273,6.69408099 L179.927273,46.8593702 C179.927273,49.9601306 177.401318,52.4825107 174.296162,52.4825107 L6.70356963,52.4825107 C3.59841407,52.4825107 1.07245852,49.9601306 1.07245852,46.8593702 L1.07245852,6.69408099 C1.07245852,3.59332066 3.59841407,1.0709405 6.70356963,1.0709405 L174.296162,1.0709405" id="Fill-4" fill="#A6A6A6" mask="url(#mask-4)"></path>
                        </g>
                        <path d="M63.5757807,13.7139025 C63.5757807,14.8358529 63.243277,15.7288612 62.5769289,16.395605 C61.8194104,17.1882 60.8339659,17.5844975 59.6219363,17.5844975 C58.4608548,17.5844975 57.4727289,17.1828446 56.6615807,16.3782 C55.8477511,15.5748942 55.4428474,14.5774562 55.4428474,13.3885636 C55.4428474,12.1983322 55.8477511,11.2022331 56.6615807,10.3975884 C57.4727289,9.59428264 58.4608548,9.19262975 59.6219363,9.19262975 C60.1971141,9.19262975 60.7494993,9.30509256 61.2723881,9.52867934 C61.7966178,9.75360496 62.2162696,10.0521669 62.5313437,10.4257041 L61.8234326,11.1326132 C61.2911585,10.4980017 60.5577733,10.179357 59.6219363,10.179357 C58.7745881,10.179357 58.0425437,10.4765802 57.4244622,11.0710264 C56.8063807,11.6668116 56.4980104,12.4379851 56.4980104,13.3885636 C56.4980104,14.3378033 56.8063807,15.1103157 57.4244622,15.704762 C58.0425437,16.3005471 58.7745881,16.5964314 59.6219363,16.5964314 C60.5202326,16.5964314 61.2683659,16.2978694 61.8690178,15.6994066 C62.2578326,15.3098033 62.483077,14.7689107 62.5420696,14.0727124 L59.6219363,14.0727124 L59.6219363,13.1074066 L63.5194696,13.1074066 C63.5570104,13.317605 63.5757807,13.5184314 63.5757807,13.7139025" id="Fill-7" fill="#FFFFFF"></path>
                        <path d="M63.5757807,13.7139025 C63.5757807,14.8358529 63.243277,15.7288612 62.5769289,16.395605 C61.8194104,17.1882 60.8339659,17.5844975 59.6219363,17.5844975 C58.4608548,17.5844975 57.4727289,17.1828446 56.6615807,16.3782 C55.8477511,15.5748942 55.4428474,14.5774562 55.4428474,13.3885636 C55.4428474,12.1983322 55.8477511,11.2022331 56.6615807,10.3975884 C57.4727289,9.59428264 58.4608548,9.19262975 59.6219363,9.19262975 C60.1971141,9.19262975 60.7494993,9.30509256 61.2723881,9.52867934 C61.7966178,9.75360496 62.2162696,10.0521669 62.5313437,10.4257041 L61.8234326,11.1326132 C61.2911585,10.4980017 60.5577733,10.179357 59.6219363,10.179357 C58.7745881,10.179357 58.0425437,10.4765802 57.4244622,11.0710264 C56.8063807,11.6668116 56.4980104,12.4379851 56.4980104,13.3885636 C56.4980104,14.3378033 56.8063807,15.1103157 57.4244622,15.704762 C58.0425437,16.3005471 58.7745881,16.5964314 59.6219363,16.5964314 C60.5202326,16.5964314 61.2683659,16.2978694 61.8690178,15.6994066 C62.2578326,15.3098033 62.483077,14.7689107 62.5420696,14.0727124 L59.6219363,14.0727124 L59.6219363,13.1074066 L63.5194696,13.1074066 C63.5570104,13.317605 63.5757807,13.5184314 63.5757807,13.7139025 Z" id="Stroke-9" stroke="#FFFFFF" stroke-width="0.5"></path>
                        <polygon id="Fill-11" fill="#FFFFFF" points="69.755657 10.3588959 66.0927533 10.3588959 66.0927533 12.9053752 69.3949978 12.9053752 69.3949978 13.870681 66.0927533 13.870681 66.0927533 16.4171603 69.755657 16.4171603 69.755657 17.4052264 65.0590422 17.4052264 65.0590422 9.3721686 69.755657 9.3721686"></polygon>
                        <polygon id="Stroke-13" stroke="#FFFFFF" stroke-width="0.5" points="69.755657 10.3588959 66.0927533 10.3588959 66.0927533 12.9053752 69.3949978 12.9053752 69.3949978 13.870681 66.0927533 13.870681 66.0927533 16.4171603 69.755657 16.4171603 69.755657 17.4052264 65.0590422 17.4052264 65.0590422 9.3721686 69.755657 9.3721686"></polygon>
                        <polygon id="Fill-15" fill="#FFFFFF" points="74.1144052 17.4048248 73.0806941 17.4048248 73.0806941 10.3584942 70.8336126 10.3584942 70.8336126 9.37176694 76.3614867 9.37176694 76.3614867 10.3584942 74.1144052 10.3584942"></polygon>
                        <polygon id="Stroke-17" stroke="#FFFFFF" stroke-width="0.5" points="74.1144052 17.4048248 73.0806941 17.4048248 73.0806941 10.3584942 70.8336126 10.3584942 70.8336126 9.37176694 76.3614867 9.37176694 76.3614867 10.3584942 74.1144052 10.3584942"></polygon>
                        <mask id="mask-6" fill="white">
                            <use xlink:href="#path-5"></use>
                        </mask>
                        <g id="Clip-20"></g>
                        <polygon id="Fill-19" fill="#FFFFFF" mask="url(#mask-6)" points="80.3613185 17.4049587 81.3950296 17.4049587 81.3950296 9.37190083 80.3613185 9.37190083"></polygon>
                        <polygon id="Stroke-21" stroke="#FFFFFF" stroke-width="0.5" mask="url(#mask-6)" points="80.3613185 17.4049587 81.3950296 17.4049587 81.3950296 9.37190083 80.3613185 9.37190083"></polygon>
                        <polygon id="Fill-22" fill="#FFFFFF" mask="url(#mask-6)" points="85.9794244 17.4048248 84.9457133 17.4048248 84.9457133 10.3584942 82.6986319 10.3584942 82.6986319 9.37176694 88.2265059 9.37176694 88.2265059 10.3584942 85.9794244 10.3584942"></polygon>
                        <polygon id="Stroke-23" stroke="#FFFFFF" stroke-width="0.5" mask="url(#mask-6)" points="85.9794244 17.4048248 84.9457133 17.4048248 84.9457133 10.3584942 82.6986319 10.3584942 82.6986319 9.37176694 88.2265059 9.37176694 88.2265059 10.3584942 85.9794244 10.3584942"></polygon>
                        <path d="M93.5558163,15.6940512 C94.1511052,16.2965306 94.8791274,16.5964314 95.7412237,16.5964314 C96.6019793,16.5964314 97.3313422,16.2965306 97.9266311,15.6940512 C98.52192,15.0915719 98.8209052,14.323076 98.8209052,13.3885636 C98.8209052,12.4540512 98.52192,11.6842165 97.9266311,11.083076 C97.3313422,10.4805967 96.6019793,10.179357 95.7412237,10.179357 C94.8791274,10.179357 94.1511052,10.4805967 93.5558163,11.083076 C92.9618681,11.6842165 92.662883,12.4540512 92.662883,13.3885636 C92.662883,14.323076 92.9618681,15.0915719 93.5558163,15.6940512 M98.6908533,16.3661504 C97.8998163,17.1788281 96.9170533,17.5844975 95.7412237,17.5844975 C94.5653941,17.5844975 93.5826311,17.1788281 92.7929348,16.3661504 C92.0018978,15.5548116 91.60772,14.5627289 91.60772,13.3885636 C91.60772,12.2143983 92.0018978,11.2209769 92.7929348,10.409638 C93.5826311,9.59829917 94.5653941,9.19262975 95.7412237,9.19262975 C96.9103496,9.19262975 97.8904311,9.59963802 98.6854904,10.4149934 C99.4792089,11.2303488 99.8760681,12.2210926 99.8760681,13.3885636 C99.8760681,14.5627289 99.4805496,15.5548116 98.6908533,16.3661504" id="Fill-24" fill="#FFFFFF" mask="url(#mask-6)"></path>
                        <path d="M93.5558163,15.6940512 C94.1511052,16.2965306 94.8791274,16.5964314 95.7412237,16.5964314 C96.6019793,16.5964314 97.3313422,16.2965306 97.9266311,15.6940512 C98.52192,15.0915719 98.8209052,14.323076 98.8209052,13.3885636 C98.8209052,12.4540512 98.52192,11.6842165 97.9266311,11.083076 C97.3313422,10.4805967 96.6019793,10.179357 95.7412237,10.179357 C94.8791274,10.179357 94.1511052,10.4805967 93.5558163,11.083076 C92.9618681,11.6842165 92.662883,12.4540512 92.662883,13.3885636 C92.662883,14.323076 92.9618681,15.0915719 93.5558163,15.6940512 Z M98.6908533,16.3661504 C97.8998163,17.1788281 96.9170533,17.5844975 95.7412237,17.5844975 C94.5653941,17.5844975 93.5826311,17.1788281 92.7929348,16.3661504 C92.0018978,15.5548116 91.60772,14.5627289 91.60772,13.3885636 C91.60772,12.2143983 92.0018978,11.2209769 92.7929348,10.409638 C93.5826311,9.59829917 94.5653941,9.19262975 95.7412237,9.19262975 C96.9103496,9.19262975 97.8904311,9.59963802 98.6854904,10.4149934 C99.4792089,11.2303488 99.8760681,12.2210926 99.8760681,13.3885636 C99.8760681,14.5627289 99.4805496,15.5548116 98.6908533,16.3661504 Z" id="Stroke-25" stroke="#FFFFFF" stroke-width="0.5" mask="url(#mask-6)"></path>
                        <polygon id="Fill-26" fill="#FFFFFF" mask="url(#mask-6)" points="101.326616 17.4048248 101.326616 9.37176694 102.58423 9.37176694 106.49383 15.6201471 106.539416 15.6201471 106.49383 14.0724446 106.49383 9.37176694 107.528882 9.37176694 107.528882 17.4048248 106.449586 17.4048248 102.360327 10.8525273 102.314741 10.8525273 102.360327 12.4015686 102.360327 17.4048248"></polygon>
                        <polygon id="Stroke-27" stroke="#FFFFFF" stroke-width="0.5" mask="url(#mask-6)" points="101.326616 17.4048248 101.326616 9.37176694 102.58423 9.37176694 106.49383 15.6201471 106.539416 15.6201471 106.49383 14.0724446 106.49383 9.37176694 107.528882 9.37176694 107.528882 17.4048248 106.449586 17.4048248 102.360327 10.8525273 102.314741 10.8525273 102.360327 12.4015686 102.360327 17.4048248"></polygon>
                        <path d="M143.373452,40.1652893 L145.873933,40.1652893 L145.873933,23.4284132 L143.373452,23.4284132 L143.373452,40.1652893 Z M165.907281,29.4572231 L163.039437,36.7137521 L162.95363,36.7137521 L159.977185,29.4572231 L157.282296,29.4572231 L161.746963,39.5989587 L159.200896,45.240843 L161.809978,45.240843 L168.689319,29.4572231 L165.907281,29.4572231 Z M151.718222,38.2641322 C150.90037,38.2641322 149.756719,37.8544463 149.756719,36.842281 C149.756719,35.5516364 151.180585,35.0549256 152.410044,35.0549256 C153.508111,35.0549256 154.026978,35.2932397 154.694667,35.614562 C154.500259,37.166281 153.163541,38.2641322 151.718222,38.2641322 Z M152.02123,29.0903802 C150.209889,29.0903802 148.334193,29.8883306 147.557904,31.6529256 L149.77817,32.579405 C150.252793,31.6529256 151.136341,31.351686 152.064133,31.351686 C153.357948,31.351686 154.673215,32.126876 154.694667,33.5045455 L154.694667,33.6772562 C154.241496,33.4188595 153.2708,33.0319339 152.085585,33.0319339 C149.691022,33.0319339 147.254896,34.3453388 147.254896,36.799438 C147.254896,39.0393223 149.217741,40.482595 151.416556,40.482595 C153.097844,40.482595 154.026978,39.7288264 154.607519,38.8451901 L154.694667,38.8451901 L154.694667,40.1371736 L157.110681,40.1371736 L157.110681,33.7200992 C157.110681,30.7492066 154.887733,29.0903802 152.02123,29.0903802 Z M136.559807,31.4949421 L133.001481,31.4949421 L133.001481,25.758 L136.559807,25.758 C138.430141,25.758 139.492007,27.3030248 139.492007,28.6258017 C139.492007,29.9231405 138.430141,31.4949421 136.559807,31.4949421 Z M136.495452,23.4270744 L130.501,23.4270744 L130.501,40.1652893 L133.001481,40.1652893 L133.001481,33.8245289 L136.495452,33.8245289 C139.268104,33.8245289 141.99383,31.8189421 141.99383,28.6258017 C141.99383,25.4326612 139.268104,23.4270744 136.495452,23.4270744 Z M103.806852,38.2668099 C102.078637,38.2668099 100.631978,36.8221983 100.631978,34.8380331 C100.631978,32.8311074 102.078637,31.3650744 103.806852,31.3650744 C105.512274,31.3650744 106.851674,32.8311074 106.851674,34.8380331 C106.851674,36.8221983 105.512274,38.2668099 103.806852,38.2668099 Z M106.678719,30.3944132 L106.592911,30.3944132 C106.031141,29.7263306 104.950504,29.1211736 103.590993,29.1211736 C100.739237,29.1211736 98.1247926,31.6234711 98.1247926,34.8380331 C98.1247926,38.0298347 100.739237,40.5107107 103.590993,40.5107107 C104.950504,40.5107107 106.031141,39.9068926 106.592911,39.2160496 L106.678719,39.2160496 L106.678719,40.0354215 C106.678719,42.2150579 105.512274,43.3785124 103.633896,43.3785124 C102.100089,43.3785124 101.149504,42.2793223 100.760689,41.3515041 L98.5793037,42.2579008 C99.2054296,43.7667769 100.867948,45.6224132 103.633896,45.6224132 C106.571459,45.6224132 109.055852,43.8966446 109.055852,39.69 L109.055852,29.466595 L106.678719,29.466595 L106.678719,30.3944132 Z M110.784067,40.1652893 L113.28857,40.1652893 L113.28857,23.4284132 L110.784067,23.4284132 L110.784067,40.1652893 Z M116.982311,34.6439008 C116.917956,32.442843 118.689074,31.3222314 119.962778,31.3222314 C120.957607,31.3222314 121.799593,31.8189421 122.081148,32.5298678 L116.982311,34.6439008 Z M124.758607,32.7454215 C124.282644,31.4735207 122.835985,29.1211736 119.87697,29.1211736 C116.939407,29.1211736 114.497919,31.4293388 114.497919,34.8166116 C114.497919,38.0084132 116.917956,40.5107107 120.157185,40.5107107 C122.770289,40.5107107 124.282644,38.9148099 124.910111,37.9869917 L122.966037,36.6923306 C122.317119,37.6415702 121.43223,38.2668099 120.157185,38.2668099 C118.883481,38.2668099 117.9758,37.6844132 117.393919,36.5410413 L125.01737,33.3920826 L124.758607,32.7454215 Z M64.0123259,30.8697025 L64.0123259,33.2849752 L69.8003037,33.2849752 C69.6286889,34.6439008 69.1741778,35.6359835 68.4836963,36.3254876 C67.6403704,37.1676198 66.3224222,38.095438 64.0123259,38.095438 C60.4472963,38.095438 57.661237,35.2262975 57.661237,31.6676529 C57.661237,28.1090083 60.4472963,25.2385289 64.0123259,25.2385289 C65.9349481,25.2385289 67.3387037,25.9936364 68.3750963,26.9656364 L70.0818593,25.2612893 C68.6338593,23.8809421 66.7125778,22.8232562 64.0123259,22.8232562 C59.1293481,22.8232562 55.0253407,26.7929256 55.0253407,31.6676529 C55.0253407,36.5410413 59.1293481,40.5107107 64.0123259,40.5107107 C66.6468815,40.5107107 68.6338593,39.647157 70.1891185,38.0298347 C71.7872815,36.4339339 72.2846963,34.1900331 72.2846963,32.3785785 C72.2846963,31.8189421 72.2417926,31.3008099 72.1546444,30.8697025 L64.0123259,30.8697025 Z M78.8650519,38.2668099 C77.1381778,38.2668099 75.6472741,36.8436198 75.6472741,34.8166116 C75.6472741,32.766843 77.1381778,31.3650744 78.8650519,31.3650744 C80.5932667,31.3650744 82.0841704,32.766843 82.0841704,34.8166116 C82.0841704,36.8436198 80.5932667,38.2668099 78.8650519,38.2668099 Z M78.8650519,29.1211736 C75.7116296,29.1211736 73.1414296,31.5163636 73.1414296,34.8166116 C73.1414296,38.095438 75.7116296,40.5107107 78.8650519,40.5107107 C82.0198148,40.5107107 84.5900148,38.095438 84.5900148,34.8166116 C84.5900148,31.5163636 82.0198148,29.1211736 78.8650519,29.1211736 Z M91.3527111,38.2668099 C89.6244963,38.2668099 88.1335926,36.8436198 88.1335926,34.8166116 C88.1335926,32.766843 89.6244963,31.3650744 91.3527111,31.3650744 C93.0809259,31.3650744 94.5704889,32.766843 94.5704889,34.8166116 C94.5704889,36.8436198 93.0809259,38.2668099 91.3527111,38.2668099 Z M91.3527111,29.1211736 C88.1992889,29.1211736 85.6290889,31.5163636 85.6290889,34.8166116 C85.6290889,38.095438 88.1992889,40.5107107 91.3527111,40.5107107 C94.5061333,40.5107107 97.0763333,38.095438 97.0763333,34.8166116 C97.0763333,31.5163636 94.5061333,29.1211736 91.3527111,29.1211736 Z" id="Fill-28" fill="#FFFFFF" mask="url(#mask-6)"></path>
                    </g>
                    <g id="Group-32" transform="translate(12.960494, 9.818450)">
                        <mask id="mask-8" fill="white">
                            <use xlink:href="#path-7"></use>
                        </mask>
                        <use id="Clip-31" fill="#03D0FF" xlink:href="#path-7"></use>
                        <path d="M1.03147654,0.274016529 C0.641320988,0.686380165 0.41071358,1.32634711 0.41071358,2.15509091 L0.41071358,31.7649421 C0.41071358,32.5950248 0.641320988,33.2336529 1.03147654,33.6446777 L1.12935062,33.7424132 L17.7411284,17.1554876 L17.7411284,16.9600165 L17.7411284,16.7645455 L1.12935062,0.176280992 L1.03147654,0.274016529 Z" id="Fill-30" mask="url(#mask-8)"></path>
                    </g>
                    <g id="Group-35" transform="translate(29.496296, 20.082912)">
                        <mask id="mask-10" fill="white">
                            <use xlink:href="#path-9"></use>
                        </mask>
                        <use id="Clip-34" fill="#FFD702" xlink:href="#path-9"></use>
                        <path d="M1.20532593,6.50008264 L1.20532593,6.69555372 L1.20532593,6.89102479 L6.74124444,12.4217851 L6.86727407,12.3521653 L13.4275185,8.63018182 C15.3005333,7.56580165 15.3005333,5.82530579 13.4275185,4.76226446 L6.86727407,1.04028099 L6.74258519,0.969322314 L1.20532593,6.50008264 Z" id="Fill-33" mask="url(#mask-10)"></path>
                    </g>
                    <g id="Group-38" transform="translate(13.407407, 26.777127)">
                        <mask id="mask-12" fill="white">
                            <use xlink:href="#path-11"></use>
                        </mask>
                        <g id="Clip-37"></g>
                        <path d="M0.584562963,16.686 C1.2013037,17.3393554 2.22160741,17.4210248 3.37062222,16.7690083 L22.956163,5.65661157 L17.2942148,0.00133884298 L0.584562963,16.686 Z" id="Fill-36" fill="url(#linearGradient-13)" mask="url(#mask-12)"></path>
                    </g>
                    <g id="Group-41" transform="translate(13.854321, 9.372169)">
                        <mask id="mask-15" fill="white">
                            <use xlink:href="#path-14"></use>
                        </mask>
                        <g id="Clip-40">
                            <use fill="#D8D8D8" xlink:href="#path-14"></use>
                            <use fill="#01F076" xlink:href="#path-14"></use>
                        </g>
                        <path d="M0.137649383,0.720297521 L16.8473012,17.4062975 L22.5092494,11.7510248 L2.92370864,0.638628099 C2.38473086,0.332033058 1.87390864,0.187438017 1.42073827,0.187438017 C0.905893827,0.187438017 0.464790123,0.37353719 0.137649383,0.720297521" id="Fill-39" mask="url(#mask-15)"></path>
                    </g>
                    <g id="Group-50" transform="translate(12.066667, 9.372169)">
                        <path d="M24.1718126,22.9366562 L4.71096074,33.9794331 C3.62227926,34.5953008 2.64890148,34.5551355 2.0241163,33.9928215 L1.92490148,34.0932347 L2.02277556,34.1896314 L2.0241163,34.1882926 C2.64890148,34.7506066 3.62227926,34.7921107 4.71096074,34.1749041 L24.2965015,23.0611686 L24.1718126,22.9366562 Z" id="Fill-42" fill="#000000"></path>
                        <path d="M1.92449926,33.8972281 C1.5343437,33.4848645 1.3037363,32.8448975 1.3037363,32.0161537 L1.3037363,32.2116248 C1.3037363,33.0403686 1.5343437,33.6803355 1.92449926,34.0926992 L2.02371407,33.9936248 L1.92449926,33.8972281 Z" id="Fill-44" fill="#000000"></path>
                        <path d="M30.8566119,19.143714 L24.1716785,22.9366562 L24.2963674,23.0611686 L30.8566119,19.3391851 C31.7937896,18.8076645 32.2617081,18.1074496 32.2617081,17.4072347 C32.1826044,18.0405074 31.7066415,18.6617306 30.8566119,19.143714" id="Fill-46" fill="#000000"></path>
                        <path d="M4.71082667,0.833965289 L30.8566119,15.6683455 C31.7066415,16.1503289 32.1826044,16.7715521 32.261711,17.4061636 C32.2630489,16.7059488 31.7937896,16.004395 30.8566119,15.4728744 L4.71082667,0.638494215 C2.83647111,-0.424547107 1.30400444,0.459089256 1.30400444,2.60123802 L1.30400444,2.79670909 C1.30400444,0.654560331 2.83647111,-0.229076033 4.71082667,0.833965289" id="Fill-48" fill="#FFFFFF"></path>
                    </g>
                </g>
            </g>
        </g>
    </g>
</svg>