<?xml version="1.0" encoding="UTF-8"?>
<svg width="290px" height="80px" viewBox="0 0 290 80" version="1.1" xmlns="http://www.w3.org/2000/svg" xmlns:xlink="http://www.w3.org/1999/xlink">
    <!-- Generator: Sketch 51.3 (57544) - http://www.bohemiancoding.com/sketch -->
    <title>images/logo-g0v</title>
    <desc>Created with Sketch.</desc>
    <defs></defs>
    <g id="1.-web-layout" stroke="none" stroke-width="1" fill="none" fill-rule="evenodd">
        <g id="1.-landing-page-copy" transform="translate(-542.000000, -1663.000000)" fill="#FFFFFF" fill-rule="nonzero">
            <g id="images/logo-g0v" transform="translate(542.000000, 1663.000000)">
                <polygon id="Shape" points="221.33824 40.6279435 189.965875 79.8744113 197.291402 79.8744113 228.504517 40.6279435"></polygon>
                <path d="M101.263299,45.0235479 L3.00568752,45.0235479 C1.73168284,45.0235479 0.616928739,44.0816327 0.457678153,42.8257457 C0.298427568,41.5698587 0.298427568,39.3720565 0.457678153,37.1742543 C0.457678153,36.389325 0.457678153,35.6043956 0.457678153,34.9764521 C0.457678153,14.2543171 14.4717297,0.282574568 35.492807,0.282574568 C51.2586149,0.282574568 63.6801606,8.288854 69.4131817,21.9466248 C73.0759451,17.0800628 78.6497156,14.0973312 84.5419873,14.0973312 C96.0080294,14.0973312 103.970559,21.7896389 103.970559,32.7786499 L103.970559,42.5117739 C103.811308,43.9246468 102.696554,45.0235479 101.263299,45.0235479 Z M5.55369689,39.8430141 L98.7152894,39.8430141 L98.7152894,32.7786499 C98.7152894,23.3594976 91.549013,19.1208791 84.5419873,19.1208791 C78.8089662,19.1208791 73.3944463,23.2025118 71.3241887,29.1679749 C71.0056875,30.266876 70.050184,30.8948195 68.7761793,30.8948195 C67.6614252,30.8948195 66.7059217,30.1098901 66.3874205,29.010989 C62.5654065,14.0973312 50.9401138,5.30612245 35.492807,5.30612245 C17.3382402,5.30612245 5.71294747,16.9230769 5.71294747,34.9764521 C5.71294747,35.6043956 5.71294747,36.389325 5.71294747,37.3312402 C5.55369689,38.1161695 5.55369689,39.0580848 5.55369689,39.8430141 Z" id="Shape"></path>
                <path d="M93.9377718,65.7456829 C86.7714955,65.7456829 80.7199732,60.8791209 78.3312145,53.9717425 C74.5092004,68.7284144 63.0431582,79.7174254 44.8885915,79.7174254 C26.4155236,79.7174254 12.4014721,67.9434851 12.4014721,47.5353218 C12.4014721,45.4945055 12.2422215,41.5698587 12.4014721,40 L110.659083,40 C110.659083,43.2967033 110.659083,47.0643642 110.659083,49.733124 C110.659083,59.7802198 103.174306,65.7456829 93.9377718,65.7456829 Z" id="Shape"></path>
                <path d="M157.638006,50.989011 C165.122784,50.989011 170.378053,52.0879121 174.200067,53.5007849 L174.200067,47.5353218 C171.015055,46.5934066 165.919036,45.4945055 157.797257,45.4945055 C147.445969,45.4945055 142.5092,47.5353218 140.120442,49.8901099 C137.890933,52.0879121 136.776179,55.0706436 136.776179,58.9952904 C136.776179,62.9199372 137.890933,65.7456829 140.120442,68.100471 C142.668451,70.6122449 147.445969,72.4960754 157.478755,72.4960754 C165.600535,72.4960754 170.537303,71.3971743 173.563065,68.4144427 C175.314821,66.6875981 176.111074,64.4897959 176.111074,60.4081633 L176.111074,57.11146 L153.656741,57.11146 L153.656741,62.1350078 L169.422549,62.1350078 C169.422549,62.7629513 169.422549,64.0188383 168.626296,64.9607535 C167.033791,66.5306122 162.893275,67.1585557 157.638006,67.1585557 C151.108732,67.1585557 147.605219,65.9026688 146.012713,64.33281 C144.738709,62.9199372 144.101706,61.1930926 144.101706,58.8383046 C144.101706,56.4835165 144.738709,54.7566719 146.012713,53.5007849 C147.445969,52.0879121 150.949481,50.989011 157.638006,50.989011 C157.638006,50.989011 150.949481,50.989011 157.638006,50.989011 Z" id="Shape"></path>
                <polygon id="Shape" points="283.445969 46.2794349 275.005688 46.2794349 261.469388 66.0596546 248.092339 46.2794349 239.333556 46.2794349 256.851121 71.3971743 265.769154 71.3971743 265.769154 71.3971743"></polygon>
                <path d="M227.230512,49.8901099 C224.841753,47.5353218 220.223486,45.3375196 210.031449,45.3375196 C200.317163,45.3375196 195.221144,47.3783359 192.832385,49.8901099 C190.602877,52.0879121 189.488123,54.7566719 189.488123,58.8383046 C189.488123,62.9199372 190.762128,65.588697 192.832385,67.7864992 C195.221144,70.1412873 199.998662,72.3390895 210.031449,72.3390895 C220.064236,72.3390895 224.841753,70.1412873 227.230512,67.7864992 C229.46002,65.588697 230.574774,62.9199372 230.574774,58.8383046 C230.574774,54.7566719 229.46002,52.0879121 227.230512,49.8901099 Z M210.031449,66.844584 C203.502175,66.844584 200.157912,65.588697 198.565406,64.0188383 C197.450652,62.9199372 196.654399,61.5070644 196.654399,58.6813187 C196.654399,55.855573 197.291402,54.4427002 198.565406,53.3437991 C199.998662,51.9309262 203.502175,50.6750392 210.031449,50.6750392 C216.560723,50.6750392 219.904985,51.9309262 221.33824,53.3437991 C222.612245,54.599686 223.249247,55.855573 223.249247,58.6813187 C223.249247,61.5070644 222.612245,62.9199372 221.33824,64.0188383 C219.904985,65.7456829 216.560723,66.844584 210.031449,66.844584 Z" id="Shape"></path>
                <path d="M139.164938,24.3014129 L139.164938,30.4238619 L134.865172,30.4238619 L134.865172,12.3704867 L142.031449,12.3704867 C143.464704,12.3704867 144.579458,12.6844584 145.694212,13.155416 C146.808966,13.6263736 147.605219,14.411303 148.242221,15.3532182 C148.879224,16.2951334 149.197725,17.3940345 149.197725,18.4929356 C149.197725,20.2197802 148.560723,21.6326531 147.286718,22.7315542 C146.012713,23.8304553 144.260957,24.3014129 142.031449,24.3014129 L139.164938,24.3014129 Z M139.164938,20.8477237 L142.031449,20.8477237 C142.827702,20.8477237 143.464704,20.6907378 143.942456,20.2197802 C144.420207,19.7488226 144.579458,19.277865 144.579458,18.4929356 C144.579458,17.7080063 144.420207,16.9230769 143.942456,16.4521193 C143.464704,15.9811617 142.827702,15.66719 142.031449,15.66719 L139.164938,15.66719 L139.164938,20.8477237 Z" id="Shape"></path>
                <path d="M166.715289,21.7896389 C166.715289,23.5164835 166.396788,25.0863422 165.759786,26.3422292 C165.122784,27.755102 164.16728,28.6970173 162.893275,29.4819466 C161.619271,30.266876 160.345266,30.5808477 158.75276,30.5808477 C157.160254,30.5808477 155.88625,30.266876 154.612245,29.4819466 C153.33824,28.6970173 152.541987,27.755102 151.745734,26.4992151 C151.108732,25.2433281 150.790231,23.6734694 150.63098,21.9466248 L150.63098,21.0047096 C150.63098,19.277865 150.949481,17.7080063 151.586484,16.4521193 C152.223486,15.0392465 153.17899,14.0973312 154.452994,13.3124019 C155.726999,12.5274725 157.001004,12.2135008 158.59351,12.2135008 C160.186015,12.2135008 161.46002,12.5274725 162.734025,13.3124019 C164.008029,14.0973312 164.804282,15.0392465 165.600535,16.4521193 C166.237538,17.7080063 166.556039,19.277865 166.556039,21.0047096 L166.556039,21.7896389 L166.715289,21.7896389 Z M162.256273,21.0047096 C162.256273,19.277865 161.937772,17.8649922 161.300769,16.9230769 C160.663767,15.9811617 159.867514,15.5102041 158.75276,15.5102041 C156.523252,15.5102041 155.408498,17.0800628 155.249247,20.3767661 L155.249247,21.6326531 C155.249247,23.3594976 155.567748,24.7723705 156.204751,25.7142857 C156.841753,26.6562009 157.638006,27.1271586 158.75276,27.1271586 C159.867514,27.1271586 160.663767,26.6562009 161.300769,25.7142857 C161.937772,24.7723705 162.256273,23.5164835 162.256273,21.7896389 L162.256273,21.0047096 Z" id="Shape"></path>
                <polygon id="Shape" points="182.958849 23.6734694 185.029107 12.5274725 189.328873 12.5274725 185.506858 30.266876 181.047842 30.266876 178.659083 20.0627943 176.270325 30.266876 171.811308 30.266876 167.989294 12.3704867 172.28906 12.3704867 174.359317 23.5164835 176.907327 12.3704867 180.57009 12.3704867"></polygon>
                <polygon id="Shape" points="202.387421 22.7315542 195.539645 22.7315542 195.539645 26.9701727 203.661425 26.9701727 203.661425 30.266876 191.23988 30.266876 191.23988 12.3704867 203.820676 12.3704867 203.820676 15.66719 195.698896 15.66719 195.698896 19.5918367 202.546671 19.5918367 202.546671 22.7315542"></polygon>
                <path d="M212.101706,23.9874411 L209.712947,23.9874411 L209.712947,30.266876 L205.413182,30.266876 L205.413182,12.3704867 L212.579458,12.3704867 C214.649716,12.3704867 216.401472,12.8414443 217.675477,13.7833595 C218.949481,14.7252747 219.427233,15.9811617 219.427233,17.7080063 C219.427233,18.9638932 219.108732,19.9058085 218.63098,20.8477237 C218.153229,21.7896389 217.356976,22.2605965 216.242221,22.88854 L220.064236,30.1098901 L220.064236,30.266876 L215.445969,30.266876 L212.101706,23.9874411 Z M209.712947,20.6907378 L212.420207,20.6907378 C213.21646,20.6907378 213.853463,20.533752 214.331214,20.0627943 C214.808966,19.5918367 214.968217,18.9638932 214.968217,18.3359498 C214.968217,17.5510204 214.808966,16.9230769 214.331214,16.4521193 C213.853463,15.9811617 213.21646,15.8241758 212.420207,15.8241758 L209.712947,15.8241758 L209.712947,20.6907378 Z" id="Shape"></path>
                <polygon id="Shape" points="233.282034 22.7315542 226.434259 22.7315542 226.434259 26.9701727 234.556039 26.9701727 234.556039 30.266876 222.134493 30.266876 222.134493 12.3704867 234.715289 12.3704867 234.715289 15.66719 226.59351 15.66719 226.59351 19.5918367 233.441285 19.5918367 233.441285 22.7315542"></polygon>
                <path d="M236.307795,30.266876 L236.307795,12.3704867 L242.200067,12.3704867 C243.792573,12.3704867 245.225828,12.6844584 246.499833,13.4693878 C247.773837,14.2543171 248.729341,15.1962323 249.525594,16.4521193 C250.321847,17.7080063 250.640348,19.277865 250.640348,20.8477237 L250.640348,21.6326531 C250.640348,23.2025118 250.321847,24.7723705 249.525594,26.0282575 C248.729341,27.2841444 247.773837,28.3830455 246.499833,29.010989 C245.225828,29.6389325 243.792573,30.1098901 242.200067,30.1098901 L236.307795,30.1098901 L236.307795,30.266876 Z M240.607561,15.8241758 L240.607561,26.9701727 L242.200067,26.9701727 C243.474072,26.9701727 244.429575,26.4992151 245.066577,25.7142857 C245.70358,24.9293564 246.022081,23.5164835 246.022081,21.7896389 L246.022081,21.0047096 C246.022081,19.277865 245.70358,18.021978 245.066577,17.0800628 C244.429575,16.1381476 243.474072,15.8241758 242.200067,15.8241758 L240.607561,15.8241758 Z" id="Shape"></path>
                <path d="M259.080629,30.266876 L259.080629,12.3704867 L265.609903,12.3704867 C267.998662,12.3704867 269.750418,12.8414443 270.865172,13.6263736 C271.979926,14.411303 272.616929,15.66719 272.616929,17.2370487 C272.616929,18.1789639 272.457678,18.9638932 271.979926,19.5918367 C271.502175,20.2197802 270.865172,20.6907378 270.068919,21.0047096 C271.024423,21.3186813 271.661425,21.6326531 272.298428,22.4175824 C272.93543,23.2025118 273.09468,23.8304553 273.09468,24.9293564 C273.09468,26.6562009 272.457678,28.0690738 271.342924,28.8540031 C270.22817,29.6389325 268.476414,30.1098901 266.406156,30.266876 L259.080629,30.266876 Z M263.380395,19.9058085 L265.609903,19.9058085 C266.565406,19.9058085 267.202409,19.7488226 267.680161,19.4348509 C268.157912,19.1208791 268.317163,18.6499215 268.317163,18.021978 C268.317163,17.2370487 268.157912,16.7660911 267.680161,16.4521193 C267.202409,16.1381476 266.565406,15.9811617 265.609903,15.9811617 L263.539645,15.9811617 L263.539645,19.9058085 L263.380395,19.9058085 Z M263.380395,22.7315542 L263.380395,26.9701727 L266.246905,26.9701727 C267.043158,26.9701727 267.680161,26.8131868 267.998662,26.4992151 C268.317163,26.1852433 268.635664,25.7142857 268.635664,24.9293564 C268.635664,23.5164835 267.839411,22.7315542 266.406156,22.7315542 L263.380395,22.7315542 Z" id="Shape"></path>
                <polygon id="Shape" points="281.375711 20.2197802 284.719973 12.5274725 289.497491 12.5274725 283.605219 23.9874411 283.605219 30.4238619 279.146203 30.4238619 279.146203 23.9874411 273.253931 12.5274725 277.872198 12.5274725"></polygon>
            </g>
        </g>
    </g>
</svg>