<?xml version="1.0" encoding="UTF-8"?>
<svg width="100px" height="28px" viewBox="0 0 100 28" version="1.1" xmlns="http://www.w3.org/2000/svg" xmlns:xlink="http://www.w3.org/1999/xlink">
    <!-- Generator: Sketch 51.2 (57519) - http://www.bohemiancoding.com/sketch -->
    <title>images/logo-g0v</title>
    <desc>Created with Sketch.</desc>
    <defs></defs>
    <g id="1.-web-layout" stroke="none" stroke-width="1" fill="none" fill-rule="evenodd">
        <g id="1.-landing-page" transform="translate(-670.000000, -3053.000000)" fill="#FFFFFF" fill-rule="nonzero">
            <g id="images/logo-g0v" transform="translate(670.000000, 3053.000000)">
                <polygon id="Shape" points="76.2295082 14.2153846 65.4644809 27.6769231 67.9781421 27.6769231 78.6885246 14.2153846"></polygon>
                <path d="M35.0273224,15.7230769 L1.31147541,15.7230769 C0.87431694,15.7230769 0.491803279,15.4 0.43715847,14.9692308 C0.382513661,14.5384615 0.382513661,13.7846154 0.43715847,13.0307692 C0.43715847,12.7615385 0.43715847,12.4923077 0.43715847,12.2769231 C0.43715847,5.16923077 5.24590164,0.376923077 12.4590164,0.376923077 C17.8688525,0.376923077 22.1311475,3.12307692 24.0983607,7.80769231 C25.3551913,6.13846154 27.2677596,5.11538462 29.2896175,5.11538462 C33.2240437,5.11538462 35.9562842,7.75384615 35.9562842,11.5230769 L35.9562842,14.8615385 C35.9016393,15.3461538 35.5191257,15.7230769 35.0273224,15.7230769 Z M2.18579235,13.9461538 L34.1530055,13.9461538 L34.1530055,11.5230769 C34.1530055,8.29230769 31.6939891,6.83846154 29.2896175,6.83846154 C27.3224044,6.83846154 25.4644809,8.23846154 24.7540984,10.2846154 C24.6448087,10.6615385 24.3169399,10.8769231 23.8797814,10.8769231 C23.4972678,10.8769231 23.1693989,10.6076923 23.0601093,10.2307692 C21.7486339,5.11538462 17.7595628,2.1 12.4590164,2.1 C6.2295082,2.1 2.24043716,6.08461538 2.24043716,12.2769231 C2.24043716,12.4923077 2.24043716,12.7615385 2.24043716,13.0846154 C2.18579235,13.3538462 2.18579235,13.6769231 2.18579235,13.9461538 Z" id="Shape"></path>
                <path d="M32.5136612,22.8307692 C30.0546448,22.8307692 27.9781421,21.1615385 27.1584699,18.7923077 C25.8469945,23.8538462 21.9125683,27.6230769 15.6830601,27.6230769 C9.3442623,27.6230769 4.53551913,23.5846154 4.53551913,16.5846154 C4.53551913,15.8846154 4.48087432,14.5384615 4.53551913,14 L38.2513661,14 C38.2513661,15.1307692 38.2513661,16.4230769 38.2513661,17.3384615 C38.2513661,20.7846154 35.6830601,22.8307692 32.5136612,22.8307692 Z" id="Shape"></path>
                <path d="M54.3715847,17.7692308 C56.9398907,17.7692308 58.7431694,18.1461538 60.0546448,18.6307692 L60.0546448,16.5846154 C58.9617486,16.2615385 57.2131148,15.8846154 54.4262295,15.8846154 C50.8743169,15.8846154 49.1803279,16.5846154 48.3606557,17.3923077 C47.5956284,18.1461538 47.2131148,19.1692308 47.2131148,20.5153846 C47.2131148,21.8615385 47.5956284,22.8307692 48.3606557,23.6384615 C49.2349727,24.5 50.8743169,25.1461538 54.3169399,25.1461538 C57.1038251,25.1461538 58.7978142,24.7692308 59.8360656,23.7461538 C60.4371585,23.1538462 60.7103825,22.4 60.7103825,21 L60.7103825,19.8692308 L53.0054645,19.8692308 L53.0054645,21.5923077 L58.4153005,21.5923077 C58.4153005,21.8076923 58.4153005,22.2384615 58.1420765,22.5615385 C57.5956284,23.1 56.1748634,23.3153846 54.3715847,23.3153846 C52.1311475,23.3153846 50.9289617,22.8846154 50.3825137,22.3461538 C49.9453552,21.8615385 49.726776,21.2692308 49.726776,20.4615385 C49.726776,19.6538462 49.9453552,19.0615385 50.3825137,18.6307692 C50.8743169,18.1461538 52.0765027,17.7692308 54.3715847,17.7692308 C54.3715847,17.7692308 52.0765027,17.7692308 54.3715847,17.7692308 Z" id="Shape"></path>
                <polygon id="Shape" points="97.5409836 16.1538462 94.6448087 16.1538462 90 22.9384615 85.4098361 16.1538462 82.4043716 16.1538462 88.4153005 24.7692308 91.4754098 24.7692308 91.4754098 24.7692308"></polygon>
                <path d="M78.2513661,17.3923077 C77.431694,16.5846154 75.8469945,15.8307692 72.3497268,15.8307692 C69.0163934,15.8307692 67.2677596,16.5307692 66.4480874,17.3923077 C65.6830601,18.1461538 65.3005464,19.0615385 65.3005464,20.4615385 C65.3005464,21.8615385 65.7377049,22.7769231 66.4480874,23.5307692 C67.2677596,24.3384615 68.9071038,25.0923077 72.3497268,25.0923077 C75.7923497,25.0923077 77.431694,24.3384615 78.2513661,23.5307692 C79.0163934,22.7769231 79.3989071,21.8615385 79.3989071,20.4615385 C79.3989071,19.0615385 79.0163934,18.1461538 78.2513661,17.3923077 Z M72.3497268,23.2076923 C70.1092896,23.2076923 68.9617486,22.7769231 68.4153005,22.2384615 C68.0327869,21.8615385 67.7595628,21.3769231 67.7595628,20.4076923 C67.7595628,19.4384615 67.9781421,18.9538462 68.4153005,18.5769231 C68.9071038,18.0923077 70.1092896,17.6615385 72.3497268,17.6615385 C74.5901639,17.6615385 75.7377049,18.0923077 76.2295082,18.5769231 C76.6666667,19.0076923 76.8852459,19.4384615 76.8852459,20.4076923 C76.8852459,21.3769231 76.6666667,21.8615385 76.2295082,22.2384615 C75.7377049,22.8307692 74.5901639,23.2076923 72.3497268,23.2076923 Z" id="Shape"></path>
                <path d="M48.0327869,8.61538462 L48.0327869,10.7153846 L46.557377,10.7153846 L46.557377,4.52307692 L49.0163934,4.52307692 C49.5081967,4.52307692 49.8907104,4.63076923 50.273224,4.79230769 C50.6557377,4.95384615 50.9289617,5.22307692 51.147541,5.54615385 C51.3661202,5.86923077 51.4754098,6.24615385 51.4754098,6.62307692 C51.4754098,7.21538462 51.2568306,7.7 50.8196721,8.07692308 C50.3825137,8.45384615 49.7814208,8.61538462 49.0163934,8.61538462 L48.0327869,8.61538462 Z M48.0327869,7.43076923 L49.0163934,7.43076923 C49.2896175,7.43076923 49.5081967,7.37692308 49.6721311,7.21538462 C49.8360656,7.05384615 49.8907104,6.89230769 49.8907104,6.62307692 C49.8907104,6.35384615 49.8360656,6.08461538 49.6721311,5.92307692 C49.5081967,5.76153846 49.2896175,5.65384615 49.0163934,5.65384615 L48.0327869,5.65384615 L48.0327869,7.43076923 Z" id="Shape"></path>
                <path d="M57.4863388,7.75384615 C57.4863388,8.34615385 57.3770492,8.88461538 57.1584699,9.31538462 C56.9398907,9.8 56.6120219,10.1230769 56.1748634,10.3923077 C55.7377049,10.6615385 55.3005464,10.7692308 54.7540984,10.7692308 C54.2076503,10.7692308 53.7704918,10.6615385 53.3333333,10.3923077 C52.8961749,10.1230769 52.6229508,9.8 52.3497268,9.36923077 C52.1311475,8.93846154 52.0218579,8.4 51.9672131,7.80769231 L51.9672131,7.48461538 C51.9672131,6.89230769 52.0765027,6.35384615 52.295082,5.92307692 C52.5136612,5.43846154 52.8415301,5.11538462 53.2786885,4.84615385 C53.715847,4.57692308 54.1530055,4.46923077 54.6994536,4.46923077 C55.2459016,4.46923077 55.6830601,4.57692308 56.1202186,4.84615385 C56.557377,5.11538462 56.8306011,5.43846154 57.1038251,5.92307692 C57.3224044,6.35384615 57.431694,6.89230769 57.431694,7.48461538 L57.431694,7.75384615 L57.4863388,7.75384615 Z M55.9562842,7.48461538 C55.9562842,6.89230769 55.8469945,6.40769231 55.6284153,6.08461538 C55.4098361,5.76153846 55.136612,5.6 54.7540984,5.6 C53.989071,5.6 53.6065574,6.13846154 53.5519126,7.26923077 L53.5519126,7.7 C53.5519126,8.29230769 53.6612022,8.77692308 53.8797814,9.1 C54.0983607,9.42307692 54.3715847,9.58461538 54.7540984,9.58461538 C55.136612,9.58461538 55.4098361,9.42307692 55.6284153,9.1 C55.8469945,8.77692308 55.9562842,8.34615385 55.9562842,7.75384615 L55.9562842,7.48461538 Z" id="Shape"></path>
                <polygon id="Shape" points="63.0601093 8.4 63.7704918 4.57692308 65.2459016 4.57692308 63.9344262 10.6615385 62.4043716 10.6615385 61.5846995 7.16153846 60.7650273 10.6615385 59.2349727 10.6615385 57.9234973 4.52307692 59.3989071 4.52307692 60.1092896 8.34615385 60.9836066 4.52307692 62.2404372 4.52307692"></polygon>
                <polygon id="Shape" points="69.726776 8.07692308 67.3770492 8.07692308 67.3770492 9.53076923 70.1639344 9.53076923 70.1639344 10.6615385 65.9016393 10.6615385 65.9016393 4.52307692 70.2185792 4.52307692 70.2185792 5.65384615 67.431694 5.65384615 67.431694 7 69.7814208 7 69.7814208 8.07692308"></polygon>
                <path d="M73.0601093,8.50769231 L72.2404372,8.50769231 L72.2404372,10.6615385 L70.7650273,10.6615385 L70.7650273,4.52307692 L73.2240437,4.52307692 C73.9344262,4.52307692 74.5355191,4.68461538 74.9726776,5.00769231 C75.4098361,5.33076923 75.5737705,5.76153846 75.5737705,6.35384615 C75.5737705,6.78461538 75.4644809,7.10769231 75.3005464,7.43076923 C75.136612,7.75384615 74.863388,7.91538462 74.4808743,8.13076923 L75.7923497,10.6076923 L75.7923497,10.6615385 L74.2076503,10.6615385 L73.0601093,8.50769231 Z M72.2404372,7.37692308 L73.1693989,7.37692308 C73.442623,7.37692308 73.6612022,7.32307692 73.8251366,7.16153846 C73.989071,7 74.0437158,6.78461538 74.0437158,6.56923077 C74.0437158,6.3 73.989071,6.08461538 73.8251366,5.92307692 C73.6612022,5.76153846 73.442623,5.70769231 73.1693989,5.70769231 L72.2404372,5.70769231 L72.2404372,7.37692308 Z" id="Shape"></path>
                <polygon id="Shape" points="80.3278689 8.07692308 77.9781421 8.07692308 77.9781421 9.53076923 80.7650273 9.53076923 80.7650273 10.6615385 76.5027322 10.6615385 76.5027322 4.52307692 80.8196721 4.52307692 80.8196721 5.65384615 78.0327869 5.65384615 78.0327869 7 80.3825137 7 80.3825137 8.07692308"></polygon>
                <path d="M81.3661202,10.6615385 L81.3661202,4.52307692 L83.3879781,4.52307692 C83.9344262,4.52307692 84.4262295,4.63076923 84.863388,4.9 C85.3005464,5.16923077 85.6284153,5.49230769 85.9016393,5.92307692 C86.1748634,6.35384615 86.284153,6.89230769 86.284153,7.43076923 L86.284153,7.7 C86.284153,8.23846154 86.1748634,8.77692308 85.9016393,9.20769231 C85.6284153,9.63846154 85.3005464,10.0153846 84.863388,10.2307692 C84.4262295,10.4461538 83.9344262,10.6076923 83.3879781,10.6076923 L81.3661202,10.6076923 L81.3661202,10.6615385 Z M82.8415301,5.70769231 L82.8415301,9.53076923 L83.3879781,9.53076923 C83.8251366,9.53076923 84.1530055,9.36923077 84.3715847,9.1 C84.5901639,8.83076923 84.6994536,8.34615385 84.6994536,7.75384615 L84.6994536,7.48461538 C84.6994536,6.89230769 84.5901639,6.46153846 84.3715847,6.13846154 C84.1530055,5.81538462 83.8251366,5.70769231 83.3879781,5.70769231 L82.8415301,5.70769231 Z" id="Shape"></path>
                <path d="M89.1803279,10.6615385 L89.1803279,4.52307692 L91.420765,4.52307692 C92.2404372,4.52307692 92.8415301,4.68461538 93.2240437,4.95384615 C93.6065574,5.22307692 93.8251366,5.65384615 93.8251366,6.19230769 C93.8251366,6.51538462 93.7704918,6.78461538 93.6065574,7 C93.442623,7.21538462 93.2240437,7.37692308 92.9508197,7.48461538 C93.2786885,7.59230769 93.4972678,7.7 93.715847,7.96923077 C93.9344262,8.23846154 93.989071,8.45384615 93.989071,8.83076923 C93.989071,9.42307692 93.7704918,9.90769231 93.3879781,10.1769231 C93.0054645,10.4461538 92.4043716,10.6076923 91.6939891,10.6615385 L89.1803279,10.6615385 Z M90.6557377,7.10769231 L91.420765,7.10769231 C91.7486339,7.10769231 91.9672131,7.05384615 92.1311475,6.94615385 C92.295082,6.83846154 92.3497268,6.67692308 92.3497268,6.46153846 C92.3497268,6.19230769 92.295082,6.03076923 92.1311475,5.92307692 C91.9672131,5.81538462 91.7486339,5.76153846 91.420765,5.76153846 L90.7103825,5.76153846 L90.7103825,7.10769231 L90.6557377,7.10769231 Z M90.6557377,8.07692308 L90.6557377,9.53076923 L91.6393443,9.53076923 C91.9125683,9.53076923 92.1311475,9.47692308 92.2404372,9.36923077 C92.3497268,9.26153846 92.4590164,9.1 92.4590164,8.83076923 C92.4590164,8.34615385 92.1857923,8.07692308 91.6939891,8.07692308 L90.6557377,8.07692308 Z" id="Shape"></path>
                <polygon id="Shape" points="96.8306011 7.21538462 97.9781421 4.57692308 99.6174863 4.57692308 97.5956284 8.50769231 97.5956284 10.7153846 96.0655738 10.7153846 96.0655738 8.50769231 94.0437158 4.57692308 95.6284153 4.57692308"></polygon>
            </g>
        </g>
    </g>
</svg>