<?xml version="1.0" encoding="UTF-8"?>
<svg width="32px" height="32px" viewBox="0 0 32 32" version="1.1" xmlns="http://www.w3.org/2000/svg" xmlns:xlink="http://www.w3.org/1999/xlink">
    <!-- Generator: Sketch 51.3 (57544) - http://www.bohemiancoding.com/sketch -->
    <title>icon/database</title>
    <desc>Created with Sketch.</desc>
    <defs>
        <path d="M21,5.7825604 C21,3.92913898 19.5906667,2.47277059 17.6913333,1.51224677 C15.792,0.551722939 13.2731667,0 10.5,0 C7.72802917,0 5.20770833,0.551631634 3.30866667,1.51224677 C1.409625,2.4728619 0,3.92919985 0,5.7825604 C0.00341804167,9.97222168 0,17.9744565 0,22.2173787 C0,24.0708002 1.40933333,25.5177337 3.30866667,26.4782576 C5.208,27.4387814 7.728,28 10.5,28 C13.272,28 15.7922917,27.4388423 17.6913333,26.4782576 C19.590375,25.5176729 21,24.0708002 21,22.2173787 L21,5.7825604 Z M10.5,1.82603006 C13.0429833,1.82603006 15.3410833,2.35626599 16.9257083,3.15755469 C18.5103333,3.95884339 19.2499417,4.94678901 19.2499417,5.7825604 C19.2499417,6.61833178 18.5105083,7.5967513 16.9257083,8.39807043 C15.3409083,9.19938956 13.0430417,9.73909074 10.5,9.73909074 C7.95695833,9.73909074 5.65891667,9.19935913 4.07429167,8.39807043 C2.48966667,7.59678173 1.75005833,6.61833178 1.75005833,5.7825604 C1.75005833,4.94678901 2.48949167,3.95884339 4.07429167,3.15755469 C5.65909167,2.35626599 7.95695833,1.82603006 10.5,1.82603006 Z M1.75,9.05430664 C2.20686667,9.42880745 2.7377875,9.75455164 3.30860833,10.0434392 C5.20785417,11.0040239 7.72794167,11.5651817 10.4999417,11.5651817 C13.2719417,11.5651817 15.7922333,11.0040239 17.691275,10.0434392 C18.2620667,9.75454555 18.7929875,9.42880745 19.2498833,9.05430664 L19.2498833,11.2608332 C19.2498833,12.0966046 18.51045,13.0750241 16.92565,13.8763432 C15.34085,14.6776623 13.0429833,15.2173635 10.4999417,15.2173635 C7.9569,15.2173635 5.65885833,14.6776319 4.07423333,13.8763432 C2.48960833,13.0750545 1.75,12.0966046 1.75,11.2608332 L1.75,9.05430664 Z M1.75,14.5325794 C2.20686667,14.9070802 2.7377875,15.2328244 3.30860833,15.521712 C5.20785417,16.4822967 7.72794167,17.0434544 10.4999417,17.0434544 C13.2719417,17.0434544 15.7922333,16.4822967 17.691275,15.521712 C18.2620667,15.2328183 18.7929875,14.9070802 19.2498833,14.5325794 L19.2498833,16.739106 C19.2498833,17.5748773 18.51045,18.5532969 16.92565,19.354616 C15.34085,20.1559351 13.0429833,20.6956363 10.4999417,20.6956363 C7.9569,20.6956363 5.65885833,20.1559047 4.07423333,19.354616 C2.48960833,18.5533273 1.75,17.5748773 1.75,16.739106 L1.75,14.5325794 Z M1.75,20.0108522 C2.20686667,20.385353 2.7377875,20.7110972 3.30860833,20.9999848 C5.20785417,21.9605695 7.72794167,22.5217272 10.4999417,22.5217272 C13.2719417,22.5217272 15.7922333,21.9605695 17.691275,20.9999848 C18.2620667,20.7110911 18.7929875,20.385353 19.2498833,20.0108522 L19.2498833,22.2173787 C19.2498833,23.0531501 18.51045,24.0315696 16.92565,24.8328888 C15.34085,25.6342079 13.0429833,26.1739091 10.4999417,26.1739091 C7.9569,26.1739091 5.65885833,25.6341775 4.07423333,24.8328888 C2.48960833,24.0316001 1.75,23.0531501 1.75,22.2173787 L1.75,20.0108522 Z" id="path-1"></path>
    </defs>
    <g id="Page-1" stroke="none" stroke-width="1" fill="none" fill-rule="evenodd">
        <g id="icon/database">
            <g id="color/secondary">
                <g transform="translate(6.000000, 2.000000)">
                    <mask id="mask-2" fill="white">
                        <use xlink:href="#path-1"></use>
                    </mask>
                    <use id="Mask" fill="#0072FF" fill-rule="nonzero" xlink:href="#path-1"></use>
                    <g mask="url(#mask-2)" fill="#469800" fill-rule="nonzero" id="color/primary">
                        <g transform="translate(-3.500000, -0.903226)">
                            <rect x="0" y="0" width="27.9065628" height="28.9032258"></rect>
                        </g>
                    </g>
                </g>
            </g>
        </g>
    </g>
</svg>