<?xml version="1.0" encoding="UTF-8"?>
<svg width="32px" height="32px" viewBox="0 0 32 32" version="1.1" xmlns="http://www.w3.org/2000/svg" xmlns:xlink="http://www.w3.org/1999/xlink">
    <!-- Generator: Sketch 51.2 (57519) - http://www.bohemiancoding.com/sketch -->
    <title>icon/database</title>
    <desc>Created with Sketch.</desc>
    <defs></defs>
    <g id="1.-web-layout" stroke="none" stroke-width="1" fill="none" fill-rule="evenodd">
        <g id="1.-landing-page" transform="translate(-468.000000, -1034.000000)" fill="#0072FF" fill-rule="nonzero">
            <g id="section/feature" transform="translate(0.000000, 683.000000)">
                <g id="Group-4" transform="translate(468.000000, 345.000000)">
                    <g id="icon/database" transform="translate(0.000000, 6.000000)">
                        <path d="M28,7.40212044 C28,5.35011815 26.3893333,3.7377103 24.2186667,2.6742732 C22.048,1.61083611 19.1693333,1 16,1 C12.8320333,1 9.95166667,1.61073502 7.78133333,2.6742732 C5.611,3.73781139 4,5.35018554 4,7.40212044 C4.00390633,12.040674 4,20.9002911 4,25.5978122 C4,27.6498145 5.61066667,29.2517766 7.78133333,30.3152137 C9.952,31.3786508 12.832,32 16,32 C19.168,32 22.0483333,31.3787182 24.2186667,30.3152137 C26.389,29.2517092 28,27.6498145 28,25.5978122 L28,7.40212044 Z M16,3.02167613 C18.9062667,3.02167613 21.5326667,3.60872306 23.3436667,4.49586412 C25.1546667,5.38300518 25.9999333,6.47680212 25.9999333,7.40212044 C25.9999333,8.32743876 25.1548667,9.41068894 23.3436667,10.2978637 C21.5324667,11.1850384 18.9063333,11.7825647 16,11.7825647 C13.0936667,11.7825647 10.4673333,11.1850048 8.65633333,10.2978637 C6.84533333,9.41072263 6.00006667,8.32743876 6.00006667,7.40212044 C6.00006667,6.47680212 6.84513333,5.38300518 8.65633333,4.49586412 C10.4675333,3.60872306 13.0936667,3.02167613 16,3.02167613 Z M6,11.0244109 C6.52213333,11.4390368 7.1289,11.7996822 7.78126667,12.119522 C9.95183333,13.1830265 12.8319333,13.8043083 15.9999333,13.8043083 C19.1679333,13.8043083 22.0482667,13.1830265 24.2186,12.119522 C24.8709333,11.7996754 25.4777,11.4390368 25.9998667,11.0244109 L25.9998667,13.467351 C25.9998667,14.3926693 25.1548,15.4759195 23.3436,16.3630943 C21.5324,17.250269 18.9062667,17.8477953 15.9999333,17.8477953 C13.0936,17.8477953 10.4672667,17.2502353 8.65626667,16.3630943 C6.84526667,15.4759532 6,14.3926693 6,13.467351 L6,11.0244109 Z M6,17.0896415 C6.52213333,17.5042674 7.1289,17.8649127 7.78126667,18.1847526 C9.95183333,19.2482571 12.8319333,19.8695388 15.9999333,19.8695388 C19.1679333,19.8695388 22.0482667,19.2482571 24.2186,18.1847526 C24.8709333,17.864906 25.4777,17.5042674 25.9998667,17.0896415 L25.9998667,19.5325816 C25.9998667,20.4578999 25.1548,21.5411501 23.3436,22.4283248 C21.5324,23.3154996 18.9062667,23.9130259 15.9999333,23.9130259 C13.0936,23.9130259 10.4672667,23.3154659 8.65626667,22.4283248 C6.84526667,21.5411838 6,20.4578999 6,19.5325816 L6,17.0896415 Z M6,23.1548721 C6.52213333,23.569498 7.1289,23.9301433 7.78126667,24.2499832 C9.95183333,25.3134876 12.8319333,25.9347694 15.9999333,25.9347694 C19.1679333,25.9347694 22.0482667,25.3134876 24.2186,24.2499832 C24.8709333,23.9301366 25.4777,23.569498 25.9998667,23.1548721 L25.9998667,25.5978122 C25.9998667,26.5231305 25.1548,27.6063807 23.3436,28.4935554 C21.5324,29.3807302 18.9062667,29.9782565 15.9999333,29.9782565 C13.0936,29.9782565 10.4672667,29.3806965 8.65626667,28.4935554 C6.84526667,27.6064144 6,26.5231305 6,25.5978122 L6,23.1548721 Z" id="Shape"></path>
                    </g>
                </g>
            </g>
        </g>
    </g>
</svg>