<?xml version="1.0" encoding="UTF-8"?>
<svg width="32px" height="32px" viewBox="0 0 32 32" version="1.1" xmlns="http://www.w3.org/2000/svg" xmlns:xlink="http://www.w3.org/1999/xlink">
    <!-- Generator: Sketch 51.3 (57544) - http://www.bohemiancoding.com/sketch -->
    <title>icon/fast</title>
    <desc>Created with Sketch.</desc>
    <defs>
        <path d="M15.822044,5.08830236 C15.822044,5.56451152 15.4664877,5.96639881 14.9692777,5.96639881 L4.30258734,5.96639881 C3.84150187,5.96639881 3.449821,5.56454813 3.449821,5.08830236 C3.449821,4.61352106 3.84007964,4.21020592 4.30258734,4.21020592 L14.9692777,4.21020592 C15.4303632,4.21020592 15.822044,4.61205659 15.822044,5.08830236 Z M14.4360854,9.29865473 L14.4360499,9.29865473 C14.4360499,9.77486388 14.0804935,10.1767512 13.5818968,10.1767512 L7.96375103,10.1767512 C7.50266556,10.1767512 7.11098469,9.7749005 7.11098469,9.29865473 C7.11098469,8.82387343 7.50124334,8.42055828 7.96375103,8.42055828 L13.5833191,8.42055828 C14.0444045,8.42055828 14.4360854,8.82240896 14.4360854,9.29865473 Z M22.7916595,0 L22.7918018,0.000693426729 C27.8748353,0.000693426729 32,4.2465592 32,9.48240695 C32,14.7182547 27.8751908,18.9642464 22.7918018,19 C19.5210389,19 16.4986678,17.2050719 14.8625397,14.3133286 L11.0221756,14.3133286 C10.5610901,14.3133286 10.1694093,13.911478 10.1694093,13.4352322 C10.1694093,12.9604509 10.5596679,12.5571358 11.0221756,12.5571358 L15.394452,12.5585658 C15.715306,12.5585658 16.0000213,12.7416319 16.1416892,13.0348116 C17.4568921,15.5974883 20.0181778,17.2078199 22.8265041,17.2078199 C26.9516688,17.2078199 30.3294541,13.7297028 30.3294541,9.48200642 C30.3294541,5.23431006 26.9861577,1.75619289 22.8265041,1.75619289 L0.852766339,1.75619289 C0.39168087,1.75619289 0,1.35434221 0,0.878096444 C0,0.403315145 0.390258645,0 0.852766339,0 L22.7916595,0 Z M22.7916595,3.29505837 L22.7916766,3.29534394 C23.3250182,3.29534394 23.7152982,3.73442878 23.608354,4.24640763 L23.6111316,9.22743753 L25.7083451,11.3869456 C26.0639015,11.7530632 26.0639015,12.3751702 25.7083451,12.7412878 C25.530567,12.9243466 25.3166714,13.0344674 25.0680593,13.0344674 C24.8541566,13.0344674 24.6055516,12.9243466 24.4277734,12.7412878 L22.0805326,10.3243259 C22.0444223,10.2885708 22.0096987,10.2156329 21.9735884,10.17845 C21.9388648,10.1426949 21.9388648,10.069757 21.9027545,10.0325741 C21.9027545,9.95963611 21.8666441,9.92245321 21.8666441,9.84951526 L21.8666441,4.24754991 C21.8666441,3.73410659 22.2944495,3.29505837 22.7916595,3.29505837 Z" id="path-1"></path>
    </defs>
    <g id="Page-1" stroke="none" stroke-width="1" fill="none" fill-rule="evenodd">
        <g id="icon/fast">
            <g id="color/secondary">
                <g transform="translate(0.000000, 7.000000)">
                    <mask id="mask-2" fill="white">
                        <use xlink:href="#path-1"></use>
                    </mask>
                    <use id="Mask" fill="#0072FF" fill-rule="nonzero" xlink:href="#path-1"></use>
                    <g mask="url(#mask-2)" fill="#469800" fill-rule="nonzero" id="color/primary">
                        <g transform="translate(0.000000, -7.000000)">
                            <rect x="0" y="0" width="32" height="32"></rect>
                        </g>
                    </g>
                </g>
            </g>
        </g>
    </g>
</svg>