<?xml version="1.0" encoding="UTF-8"?>
<svg width="32px" height="32px" viewBox="0 0 32 32" version="1.1" xmlns="http://www.w3.org/2000/svg" xmlns:xlink="http://www.w3.org/1999/xlink">
    <!-- Generator: Sketch 51.2 (57519) - http://www.bohemiancoding.com/sketch -->
    <title>icon/fast</title>
    <desc>Created with Sketch.</desc>
    <defs></defs>
    <g id="1.-web-layout" stroke="none" stroke-width="1" fill="none" fill-rule="evenodd">
        <g id="1.-landing-page" transform="translate(-438.000000, -922.000000)" fill="#0072FF" fill-rule="nonzero">
            <g id="section/feature" transform="translate(0.000000, 683.000000)">
                <g id="Group-3" transform="translate(438.000000, 236.000000)">
                    <g id="icon/fast" transform="translate(0.000000, 3.000000)">
                        <path d="M15.822044,12.0883024 C15.822044,12.5645115 15.4664877,12.9663988 14.9692777,12.9663988 L4.30258734,12.9663988 C3.84150187,12.9663988 3.449821,12.5645481 3.449821,12.0883024 C3.449821,11.6135211 3.84007964,11.2102059 4.30258734,11.2102059 L14.9692777,11.2102059 C15.4303632,11.2102059 15.822044,11.6120566 15.822044,12.0883024 Z M14.4360854,16.2986547 L14.4360499,16.2986547 C14.4360499,16.7748639 14.0804935,17.1767512 13.5818968,17.1767512 L7.96375103,17.1767512 C7.50266556,17.1767512 7.11098469,16.7749005 7.11098469,16.2986547 C7.11098469,15.8238734 7.50124334,15.4205583 7.96375103,15.4205583 L13.5833191,15.4205583 C14.0444045,15.4205583 14.4360854,15.822409 14.4360854,16.2986547 Z M22.7916595,7 L22.7918018,7.00069343 C27.8748353,7.00069343 32,11.2465592 32,16.482407 C32,21.7182547 27.8751908,25.9642464 22.7918018,26 C19.5210389,26 16.4986678,24.2050719 14.8625397,21.3133286 L11.0221756,21.3133286 C10.5610901,21.3133286 10.1694093,20.911478 10.1694093,20.4352322 C10.1694093,19.9604509 10.5596679,19.5571358 11.0221756,19.5571358 L15.394452,19.5585658 C15.715306,19.5585658 16.0000213,19.7416319 16.1416892,20.0348116 C17.4568921,22.5974883 20.0181778,24.2078199 22.8265041,24.2078199 C26.9516688,24.2078199 30.3294541,20.7297028 30.3294541,16.4820064 C30.3294541,12.2343101 26.9861577,8.75619289 22.8265041,8.75619289 L0.852766339,8.75619289 C0.39168087,8.75619289 0,8.35434221 0,7.87809644 C0,7.40331514 0.390258645,7 0.852766339,7 L22.7916595,7 Z M22.7916595,10.2950584 L22.7916766,10.2953439 C23.3250182,10.2953439 23.7152982,10.7344288 23.608354,11.2464076 L23.6111316,16.2274375 L25.7083451,18.3869456 C26.0639015,18.7530632 26.0639015,19.3751702 25.7083451,19.7412878 C25.530567,19.9243466 25.3166714,20.0344674 25.0680593,20.0344674 C24.8541566,20.0344674 24.6055516,19.9243466 24.4277734,19.7412878 L22.0805326,17.3243259 C22.0444223,17.2885708 22.0096987,17.2156329 21.9735884,17.17845 C21.9388648,17.1426949 21.9388648,17.069757 21.9027545,17.0325741 C21.9027545,16.9596361 21.8666441,16.9224532 21.8666441,16.8495153 L21.8666441,11.2475499 C21.8666441,10.7341066 22.2944495,10.2950584 22.7916595,10.2950584 Z" id="Combined-Shape"></path>
                    </g>
                </g>
            </g>
        </g>
    </g>
</svg>