<?xml version="1.0" encoding="UTF-8"?>
<svg width="32px" height="32px" viewBox="0 0 32 32" version="1.1" xmlns="http://www.w3.org/2000/svg" xmlns:xlink="http://www.w3.org/1999/xlink">
    <!-- Generator: Sketch 51.3 (57544) - http://www.bohemiancoding.com/sketch -->
    <title>icon/measure</title>
    <desc>Created with Sketch.</desc>
    <defs>
        <path d="M30.9096704,30.909696 L1.81970773,30.909696 L6.1188864,26.6093227 C6.2069504,26.63296 6.29953707,26.6454187 6.39502507,26.6454187 L6.9283584,26.6454187 L6.9283584,28.7776427 C6.9283584,28.9186987 6.98450773,29.0548907 7.08443307,29.154816 C7.1843584,29.254656 7.3192704,29.310976 7.46041173,29.310976 C7.60283307,29.310976 7.73774507,29.254656 7.8376704,29.154816 C7.93759573,29.0548907 7.99374507,28.9186987 7.99374507,28.7776427 L7.99374507,26.6454187 L9.05913173,26.6454187 L9.05913173,27.7120853 C9.05913173,27.853312 9.1153664,27.988224 9.21529173,28.0881493 C9.31521707,28.1879893 9.45140907,28.244224 9.59246507,28.244224 L9.5925504,28.244224 C9.73369173,28.244224 9.8697984,28.1879893 9.96972373,28.0881493 C10.0696491,27.988224 10.1258837,27.853312 10.1258837,27.7120853 L10.1258837,26.6454187 L11.1912704,26.6454187 L11.1912704,27.7120853 C11.1912704,27.853312 11.2475051,27.988224 11.3474304,28.0881493 C11.4473557,28.1879893 11.5821824,28.244224 11.7246037,28.244224 C11.8658304,28.244224 12.0006571,28.1879893 12.1005824,28.0881493 C12.2005077,27.988224 12.2567424,27.853312 12.2567424,27.7120853 L12.2567424,26.6454187 L13.3233237,26.6454187 L13.3233237,27.7120853 C13.3233237,27.853312 13.3795584,27.988224 13.4794837,28.0881493 C13.5794091,28.1879893 13.7143211,28.244224 13.8554624,28.244224 C13.9977984,28.244224 14.1327957,28.1879893 14.2326357,28.0881493 C14.3325611,27.988224 14.3887957,27.853312 14.3887957,27.7120853 L14.3887957,26.6454187 L15.4541824,26.6454187 L15.4541824,27.7120853 C15.4541824,27.853312 15.5104171,27.988224 15.6103424,28.0881493 C15.7102677,28.1879893 15.8463744,28.244224 15.9875157,28.244224 C16.1286571,28.244224 16.2648491,28.1879893 16.3647744,28.0881493 C16.4646997,27.988224 16.5208491,27.853312 16.5208491,27.7120853 L16.5208491,26.6454187 L17.5863211,26.6454187 L17.5863211,28.7776427 C17.5863211,28.9186987 17.6424704,29.0548907 17.7423957,29.154816 C17.8423211,29.254656 17.9772331,29.310976 18.1196544,29.310976 C18.2607957,29.310976 18.3957077,29.254656 18.4955477,29.154816 C18.5954731,29.0548907 18.6517931,28.9186987 18.6517931,28.7776427 L18.6517931,26.6454187 L19.7183744,26.6454187 L19.7183744,27.7120853 C19.7183744,27.853312 19.7746091,27.988224 19.8745344,28.0881493 C19.9744597,28.1879893 20.1093717,28.244224 20.2504277,28.244224 C20.3928491,28.244224 20.5277611,28.1879893 20.6276864,28.0881493 C20.7276117,27.988224 20.7838464,27.853312 20.7838464,27.7120853 L20.7838464,26.6454187 L21.8491477,26.6454187 L21.8491477,27.7120853 C21.8491477,27.853312 21.9053824,27.988224 22.0053077,28.0881493 C22.1052331,28.1879893 22.2414251,28.244224 22.3824811,28.244224 L22.3825664,28.244224 C22.5237077,28.244224 22.6598144,28.1879893 22.7597397,28.0881493 C22.8596651,27.988224 22.9158997,27.853312 22.9158997,27.7120853 L22.9158997,26.6454187 L23.9813717,26.6454187 L23.9813717,27.7120853 C23.9813717,27.853312 24.0375211,27.988224 24.1374464,28.0881493 C24.2373717,28.1879893 24.3722837,28.244224 24.5147051,28.244224 C24.6558464,28.244224 24.7906731,28.1879893 24.8905984,28.0881493 C24.9905237,27.988224 25.0467584,27.853312 25.0467584,27.7120853 L25.0467584,26.6454187 L26.1133397,26.6454187 L26.1133397,27.7120853 C26.1133397,27.853312 26.1695744,27.988224 26.2694997,28.0881493 C26.3694251,28.1879893 26.5043371,28.244224 26.6454784,28.244224 C26.7878144,28.244224 26.9227264,28.1879893 27.0226517,28.0881493 C27.1225771,27.988224 27.1788117,27.853312 27.1788117,27.7120853 L27.1788117,26.6454187 L28.2442837,26.6454187 L28.2442837,28.7776427 C28.2442837,28.9186987 28.3004331,29.0548907 28.4003584,29.154816 C28.5002837,29.254656 28.6363904,29.310976 28.7776171,29.310976 C28.9187584,29.310976 29.0548651,29.254656 29.1547904,29.154816 C29.2546304,29.0548907 29.3109504,28.9186987 29.3109504,28.7776427 L29.3109504,26.6454187 L30.9096704,26.6454187 L30.9096704,30.909696 Z M1.0654464,1.065472 L5.32955307,1.065472 L5.32955307,2.664192 L3.19749973,2.664192 C2.90267307,2.664192 2.6641664,2.90269867 2.6641664,3.19752533 C2.6641664,3.49226667 2.9027584,3.73085867 3.19749973,3.73085867 L5.32955307,3.73085867 L5.32955307,4.79624533 L4.2628864,4.79624533 C3.96933973,4.79624533 3.73083307,5.03483733 3.73083307,5.32957867 C3.73083307,5.62312533 3.96933973,5.86171733 4.2628864,5.86171733 L5.32955307,5.86171733 L5.32955307,6.928384 L4.2628864,6.928384 C3.96933973,6.928384 3.73083307,7.166976 3.73083307,7.46043733 C3.73083307,7.75517867 3.96933973,7.99377067 4.2628864,7.99377067 L5.32955307,7.99377067 L5.32955307,9.05915733 L4.2628864,9.05915733 C3.96933973,9.05915733 3.73083307,9.29774933 3.73083307,9.59249067 C3.73083307,9.88740267 3.96933973,10.125824 4.2628864,10.125824 L5.32955307,10.125824 L5.32955307,11.191296 L4.2628864,11.191296 C3.96933973,11.191296 3.73083307,11.429888 3.73083307,11.7246293 C3.73083307,12.0180907 3.96933973,12.2566827 4.2628864,12.2566827 L5.32955307,12.2566827 L5.32955307,13.3233493 L3.19749973,13.3233493 C2.90267307,13.3233493 2.6641664,13.5619413 2.6641664,13.855488 C2.6641664,14.1502293 2.9027584,14.3888213 3.19749973,14.3888213 L5.32955307,14.3888213 L5.32955307,15.454208 L4.2628864,15.454208 C3.96933973,15.454208 3.73083307,15.6928 3.73083307,15.9875413 C3.73083307,16.282368 3.96933973,16.5208747 4.2628864,16.5208747 L5.32955307,16.5208747 L5.32955307,17.5862613 L4.2628864,17.5862613 C3.96933973,17.5862613 3.73083307,17.8248533 3.73083307,18.1195947 C3.73083307,18.4132267 3.96933973,18.6517333 4.2628864,18.6517333 L5.32955307,18.6517333 L5.32955307,19.7184 L4.2628864,19.7184 C3.96933973,19.7184 3.73083307,19.9569067 3.73083307,20.2504533 C3.73083307,20.54528 3.96933973,20.7837867 4.2628864,20.7837867 L5.32955307,20.7837867 L5.32955307,21.8491733 L4.2628864,21.8491733 C3.96933973,21.8491733 3.73083307,22.0877653 3.73083307,22.3825067 C3.73083307,22.6773333 3.96933973,22.9159253 4.2628864,22.9159253 L5.32955307,22.9159253 L5.32955307,23.981312 L3.19749973,23.981312 C2.90267307,23.981312 2.6641664,24.219904 2.6641664,24.5146453 C2.6641664,24.808192 2.9027584,25.0466987 3.19749973,25.0466987 L5.32955307,25.0466987 L5.32955307,25.5801173 C5.32955307,25.67552 5.3421824,25.7680213 5.3657344,25.8560853 L1.0654464,30.1564587 L1.0654464,1.065472 Z M30.9096704,25.5801173 L26.6507691,25.5801173 L26.6454784,25.580032 L26.6401877,25.5801173 L24.5199104,25.5801173 L24.5147051,25.580032 L24.5093291,25.5801173 L22.3878571,25.5801173 L22.3825664,25.580032 L22.3772757,25.5801173 L20.2557184,25.5801173 L20.2504277,25.580032 L20.2451371,25.5801173 L15.9928064,25.5801173 L15.9875157,25.580032 L15.9822251,25.5801173 L13.8607531,25.5801173 L13.8554624,25.580032 L13.8501717,25.5801173 L11.7298944,25.5801173 L11.7246037,25.580032 L11.7193131,25.5801173 L9.59775573,25.5801173 L9.59246507,25.580032 L9.58725973,25.5801173 L6.39502507,25.5801173 L6.39502507,1.065472 C6.39374507,0.477184 5.91784107,0.00128 5.32955307,0 L1.0654464,0 C0.4771584,0.00128 0.0012544,0.477184 -2.56e-05,1.065472 L-2.56e-05,30.909696 C0.0012544,31.497984 0.4771584,31.973888 1.0654464,31.9750827 L30.9096704,31.9750827 C31.4979584,31.973888 31.9738624,31.497984 31.9750571,30.909696 L31.9750571,26.6454187 C31.9738624,26.057216 31.4979584,25.5813973 30.9096704,25.5801173 Z" id="path-1"></path>
        <path d="M11.0476649,20.553546 L11.0476649,12.1023673 L11.0487526,12.1016981 L19.9309996,6.9553711 L19.9309996,15.8790897 L11.0476649,20.553546 Z M1.12093984,6.9562076 L10.0031032,12.1013635 L10.0031032,20.5528768 L1.12093984,15.8790897 L1.12093984,6.9562076 Z M10.5260116,1.11307452 L19.6476251,5.91300608 L10.5258442,11.1969376 L1.40414701,5.91300608 L10.5260116,1.11307452 Z M20.6963701,5.28445856 L10.76839,0.0599186312 C10.6166211,-0.0196326996 10.4340633,-0.0196326996 10.2822944,0.0599186312 L0.354314343,5.28445856 C0.182884064,5.37505171 0.0751231076,5.55255741 0.0751231076,5.7460403 L0.0751231076,6.04676274 C0.0751231076,6.04726464 0.0750394422,6.04785019 0.0750394422,6.04843574 C0.0750394422,6.04893764 0.0751231076,6.04952319 0.0751231076,6.05010875 L0.0751231076,16.1950365 C0.0751231076,16.3884357 0.182884064,16.5660251 0.354314343,16.6566183 L10.2822944,21.8810745 C10.28539,21.8827475 10.2888203,21.883835 10.2919996,21.885508 C10.3056371,21.8922837 10.3195255,21.8986411 10.3337486,21.9042456 C10.3396888,21.9066715 10.3457127,21.9085954 10.3518203,21.9107703 C10.3642865,21.9151202 10.3769199,21.9191354 10.3897207,21.922565 C10.3962466,21.9243217 10.4026888,21.9259947 10.4092984,21.9275004 C10.4225175,21.9305118 10.435904,21.932854 10.4495414,21.9348616 C10.455398,21.9356981 10.4612546,21.9368692 10.4672785,21.9375384 C10.4866888,21.9397133 10.5061829,21.9410517 10.5260116,21.9410517 C10.5455892,21.9410517 10.5649996,21.9396297 10.5843263,21.9375384 C10.5897645,21.9368692 10.5952028,21.9358654 10.600641,21.9351125 C10.6147805,21.9330213 10.6287526,21.9305118 10.6425574,21.9273331 C10.6484976,21.925911 10.6542705,21.924489 10.6600434,21.9228996 C10.6736809,21.919219 10.6870673,21.9149529 10.7004538,21.9102684 C10.7057247,21.9083445 10.7110793,21.9066715 10.7162665,21.9045802 C10.73141,21.8986411 10.7461351,21.891949 10.7606092,21.8845878 C10.7632865,21.8832494 10.7659637,21.8824129 10.76839,21.8810745 L20.6963701,16.6566183 C20.8678004,16.5660251 20.9755614,16.3884357 20.9755614,16.1950365 L20.9755614,5.7460403 C20.9755614,5.55255741 20.8678004,5.37505171 20.6963701,5.28445856 Z" id="path-3"></path>
    </defs>
    <g id="Page-1" stroke="none" stroke-width="1" fill="none" fill-rule="evenodd">
        <g id="icon/measure">
            <g id="color/secondary">
                <g>
                    <g>
                        <mask id="mask-2" fill="white">
                            <use xlink:href="#path-1"></use>
                        </mask>
                        <use id="Mask" fill="#0072FF" xlink:href="#path-1"></use>
                        <g mask="url(#mask-2)" fill="#469800" fill-rule="nonzero" id="color/primary">
                            <g transform="translate(0.000000, -0.085333)">
                                <rect x="0" y="0" width="31.8577778" height="32.768"></rect>
                            </g>
                        </g>
                    </g>
                    <g transform="translate(11.000000, 1.000000)">
                        <mask id="mask-4" fill="white">
                            <use xlink:href="#path-3"></use>
                        </mask>
                        <use id="Mask" fill="#0072FF" xlink:href="#path-3"></use>
                        <g mask="url(#mask-4)" fill="#469800" fill-rule="nonzero" id="color/primary">
                            <g transform="translate(-11.000000, -1.083650)">
                                <rect x="0" y="0" width="31.8577778" height="23.6657778"></rect>
                            </g>
                        </g>
                    </g>
                </g>
            </g>
        </g>
    </g>
</svg>