<?xml version="1.0" encoding="UTF-8"?>
<svg width="32px" height="32px" viewBox="0 0 32 32" version="1.1" xmlns="http://www.w3.org/2000/svg" xmlns:xlink="http://www.w3.org/1999/xlink">
    <!-- Generator: Sketch 51.2 (57519) - http://www.bohemiancoding.com/sketch -->
    <title>icon/measure</title>
    <desc>Created with Sketch.</desc>
    <defs></defs>
    <g id="1.-web-layout" stroke="none" stroke-width="1" fill="none" fill-rule="evenodd">
        <g id="1.-landing-page" transform="translate(-305.000000, -834.000000)" fill="#0072FF" fill-rule="nonzero">
            <g id="section/feature" transform="translate(0.000000, 683.000000)">
                <g id="Group-2" transform="translate(305.000000, 148.000000)">
                    <g id="icon/measure" transform="translate(0.000000, 3.000000)">
                        <g id="Group">
                            <path d="M30.93376,32 L1.06624,32 C0.477504,31.9987501 0.001248,31.522496 7.10542736e-15,30.93376 L7.10542736e-15,1.06624 C0.001249984,0.477504 0.477504,0.001248 1.06624,7.10542736e-15 L5.33376,7.10542736e-15 C5.922496,0.001249984 6.398752,0.477504 6.4,1.06624 L6.4,25.6 L30.93376,25.6 C31.522496,25.6012499 31.998752,26.077504 32,26.66624 L32,30.93376 C31.9987501,31.522496 31.522496,31.998752 30.93376,32 Z M1.06624,1.06624 L1.06624,30.93376 L30.93376,30.93376 L30.93376,26.66624 L6.4,26.66624 C5.811264,26.66624 5.33376,26.188736 5.33376,25.6 L5.33376,1.06624 L1.06624,1.06624 Z" id="Shape"></path>
                            <path d="M0.842496,31.68992 C0.6274976,31.68992 0.432512,31.5611712 0.349984,31.361184 C0.2674848,31.1624352 0.3137344,30.932448 0.4662336,30.779936 L5.4899136,25.756256 C5.6986624,25.5512576 6.0336576,25.5525056 6.2399296,25.7600061 C6.4474304,25.9662557 6.4486784,26.3012541 6.24367968,26.5100221 L1.21999968,31.5349821 C1.11999968,31.6349821 0.98375008,31.6912317 0.84249568,31.6899837 L0.842496,31.68992 Z" id="Shape"></path>
                            <path d="M5.86624,3.73376 L3.2,3.73376 C2.9049984,3.73376 2.66624,3.4950112 2.66624,3.2 C2.66624,2.9049888 2.9049888,2.66624 3.2,2.66624 L5.86624,2.66624 C6.1612416,2.66624 6.4,2.9049888 6.4,3.2 C6.4,3.4950112 6.1612512,3.73376 5.86624,3.73376 Z" id="Shape"></path>
                            <path d="M5.86624,14.4 L3.2,14.4 C2.9049984,14.4 2.66624,14.1612512 2.66624,13.86624 C2.66624,13.5724896 2.9049888,13.333728 3.2,13.333728 L5.86624,13.333728 C6.1612416,13.333728 6.4,13.5724768 6.4,13.86624 C6.4,14.1612416 6.1612512,14.4 5.86624,14.4 Z" id="Shape"></path>
                            <path d="M5.86624,25.06624 L3.2,25.06624 C2.9049984,25.06624 2.66624,24.8274912 2.66624,24.533728 C2.66624,24.2387264 2.9049888,23.999968 3.2,23.999968 L5.86624,23.999968 C6.1612416,23.999968 6.4,24.2387168 6.4,24.533728 C6.4,24.8274784 6.1612512,25.06624 5.86624,25.06624 Z" id="Shape"></path>
                            <path d="M5.86624,5.86624 L4.26624,5.86624 C3.9724896,5.86624 3.733728,5.6274912 3.733728,5.333728 C3.733728,5.0387264 3.9724768,4.799968 4.26624,4.799968 L5.86624,4.799968 C6.1612416,4.799968 6.4,5.0387168 6.4,5.333728 C6.4,5.6274784 6.1612512,5.86624 5.86624,5.86624 Z" id="Shape"></path>
                            <path d="M5.86624,8 L4.26624,8 C3.9724896,8 3.733728,7.7612512 3.733728,7.46624 C3.733728,7.1724896 3.9724768,6.933728 4.26624,6.933728 L5.86624,6.933728 C6.1612416,6.933728 6.4,7.1724768 6.4,7.46624 C6.4,7.7612416 6.1612512,8 5.86624,8 Z" id="Shape"></path>
                            <path d="M5.86624,10.13376 L4.26624,10.13376 C3.9724896,10.13376 3.733728,9.8950112 3.733728,9.6 C3.733728,9.3049888 3.9724768,9.06624 4.26624,9.06624 L5.86624,9.06624 C6.1612416,9.06624 6.4,9.3049888 6.4,9.6 C6.4,9.8950112 6.1612512,10.13376 5.86624,10.13376 Z" id="Shape"></path>
                            <path d="M5.86624,12.26624 L4.26624,12.26624 C3.9724896,12.26624 3.733728,12.0274912 3.733728,11.733728 C3.733728,11.4387264 3.9724768,11.199968 4.26624,11.199968 L5.86624,11.199968 C6.1612416,11.199968 6.4,11.4387168 6.4,11.733728 C6.4,12.0274784 6.1612512,12.26624 5.86624,12.26624 Z" id="Shape"></path>
                            <path d="M5.86624,16.53376 L4.26624,16.53376 C3.9724896,16.53376 3.733728,16.2950112 3.733728,16 C3.733728,15.7049888 3.9724768,15.46624 4.26624,15.46624 L5.86624,15.46624 C6.1612416,15.46624 6.4,15.7049888 6.4,16 C6.4,16.2950112 6.1612512,16.53376 5.86624,16.53376 Z" id="Shape"></path>
                            <path d="M5.86624,18.66624 L4.26624,18.66624 C3.9724896,18.66624 3.733728,18.4274912 3.733728,18.133728 C3.733728,17.8387264 3.9724768,17.599968 4.26624,17.599968 L5.86624,17.599968 C6.1612416,17.599968 6.4,17.8387168 6.4,18.133728 C6.4,18.4274784 6.1612512,18.66624 5.86624,18.66624 Z" id="Shape"></path>
                            <path d="M5.86624,20.8 L4.26624,20.8 C3.9724896,20.8 3.733728,20.5612512 3.733728,20.26624 C3.733728,19.9724896 3.9724768,19.733728 4.26624,19.733728 L5.86624,19.733728 C6.1612416,19.733728 6.4,19.9724768 6.4,20.26624 C6.4,20.5612416 6.1612512,20.8 5.86624,20.8 Z" id="Shape"></path>
                            <path d="M5.86624,22.93376 L4.26624,22.93376 C3.9724896,22.93376 3.733728,22.6950112 3.733728,22.4 C3.733728,22.1049888 3.9724768,21.86624 4.26624,21.86624 L5.86624,21.86624 C6.1612416,21.86624 6.4,22.1049888 6.4,22.4 C6.4,22.6950112 6.1612512,22.93376 5.86624,22.93376 Z" id="Shape"></path>
                            <path d="M7.46624,29.33376 C7.3249888,29.33376 7.1899904,29.2775104 7.089984,29.1775104 C6.9899776,29.0775104 6.9337344,28.9412608 6.9337344,28.8000064 L6.9337344,26.1337664 C6.9337344,25.8387648 7.1724832,25.6000064 7.4662464,25.6000064 C7.761248,25.6000064 8.0000064,25.8387552 8.0000064,26.1337664 L8.0000064,28.8000064 C8.0000064,28.9412576 7.9437568,29.0775072 7.8437568,29.1775104 C7.7437568,29.2775136 7.6087552,29.33376 7.4662528,29.33376 L7.46624,29.33376 Z" id="Shape"></path>
                            <path d="M18.13376,29.33376 C17.9912608,29.33376 17.8562592,29.2775104 17.756256,29.1775104 C17.6562528,29.0775104 17.6000064,28.9412608 17.6000064,28.8000064 L17.6000064,26.1337664 C17.6000064,25.8387648 17.8387552,25.6000064 18.1337664,25.6000064 C18.4275168,25.6000064 18.6662784,25.8387552 18.6662784,26.1337664 L18.6662784,28.8000064 C18.6662784,28.9412576 18.6100288,29.0775072 18.5100288,29.1775104 C18.4100288,29.2775136 18.2750272,29.33376 18.1337728,29.33376 L18.13376,29.33376 Z" id="Shape"></path>
                            <path d="M28.8,29.33376 C28.6587488,29.33376 28.5224992,29.2775104 28.422496,29.1775104 C28.3224928,29.0775104 28.2662464,28.9412608 28.2662464,28.8000064 L28.2662464,26.1337664 C28.2662464,25.8387648 28.5049952,25.6000064 28.8000064,25.6000064 C29.0950176,25.6000064 29.3337664,25.8387552 29.3337664,26.1337664 L29.3337664,28.8000064 C29.3337664,28.9412576 29.2775168,29.0775072 29.1775168,29.1775104 C29.0775168,29.2775136 28.9412672,29.33376 28.8000128,29.33376 L28.8,29.33376 Z" id="Shape"></path>
                            <path d="M9.6,28.26624 C9.4587488,28.26624 9.3224992,28.2099904 9.222496,28.1099904 C9.1224928,28.0099904 9.0662464,27.8749888 9.0662464,27.7337344 L9.0662464,26.1337344 C9.0662464,25.8387328 9.3049952,25.5999744 9.6000064,25.5999744 C9.8950176,25.5999744 10.1337664,25.8387232 10.1337664,26.1337344 L10.1337664,27.7337344 C10.1337664,27.8749856 10.0775168,28.009984 9.9775168,28.1099904 C9.8775168,28.2099968 9.7412672,28.26624 9.6000128,28.26624 L9.6,28.26624 Z" id="Shape"></path>
                            <path d="M11.73376,28.26624 C11.5912608,28.26624 11.4562592,28.2099904 11.356256,28.1099904 C11.2562528,28.0099904 11.2000064,27.8749888 11.2000064,27.7337344 L11.2000064,26.1337344 C11.2000064,25.8387328 11.4387552,25.5999744 11.7337664,25.5999744 C12.0275168,25.5999744 12.2662784,25.8387232 12.2662784,26.1337344 L12.2662784,27.7337344 C12.2662784,27.8749856 12.2100288,28.009984 12.1100288,28.1099904 C12.0100288,28.2099968 11.8750272,28.26624 11.7337728,28.26624 L11.73376,28.26624 Z" id="Shape"></path>
                            <path d="M13.86624,28.26624 C13.7249888,28.26624 13.5899904,28.2099904 13.489984,28.1099904 C13.3899776,28.0099904 13.3337344,27.8749888 13.3337344,27.7337344 L13.3337344,26.1337344 C13.3337344,25.8387328 13.5724832,25.5999744 13.8662464,25.5999744 C14.161248,25.5999744 14.4000064,25.8387232 14.4000064,26.1337344 L14.4000064,27.7337344 C14.4000064,27.8749856 14.3437568,28.009984 14.2437568,28.1099904 C14.1437568,28.2099968 14.0087552,28.26624 13.8662528,28.26624 L13.86624,28.26624 Z" id="Shape"></path>
                            <path d="M16,28.26624 C15.8587488,28.26624 15.7224992,28.2099904 15.622496,28.1099904 C15.5224928,28.0099904 15.4662464,27.8749888 15.4662464,27.7337344 L15.4662464,26.1337344 C15.4662464,25.8387328 15.7049952,25.5999744 16.0000064,25.5999744 C16.2950176,25.5999744 16.5337664,25.8387232 16.5337664,26.1337344 L16.5337664,27.7337344 C16.5337664,27.8749856 16.4775168,28.009984 16.3775168,28.1099904 C16.2775168,28.2099968 16.1412672,28.26624 16.0000128,28.26624 L16,28.26624 Z" id="Shape"></path>
                            <path d="M20.26624,28.26624 C20.1249888,28.26624 19.9899904,28.2099904 19.889984,28.1099904 C19.7899776,28.0099904 19.7337344,27.8749888 19.7337344,27.7337344 L19.7337344,26.1337344 C19.7337344,25.8387328 19.9724832,25.5999744 20.2662464,25.5999744 C20.561248,25.5999744 20.8000064,25.8387232 20.8000064,26.1337344 L20.8000064,27.7337344 C20.8000064,27.8749856 20.7437568,28.009984 20.6437568,28.1099904 C20.5437568,28.2099968 20.4087552,28.26624 20.2662528,28.26624 L20.26624,28.26624 Z" id="Shape"></path>
                            <path d="M22.4,28.26624 C22.2587488,28.26624 22.1224992,28.2099904 22.022496,28.1099904 C21.9224928,28.0099904 21.8662464,27.8749888 21.8662464,27.7337344 L21.8662464,26.1337344 C21.8662464,25.8387328 22.1049952,25.5999744 22.4000064,25.5999744 C22.6950176,25.5999744 22.9337664,25.8387232 22.9337664,26.1337344 L22.9337664,27.7337344 C22.9337664,27.8749856 22.8775168,28.009984 22.7775168,28.1099904 C22.6775168,28.2099968 22.5412672,28.26624 22.4000128,28.26624 L22.4,28.26624 Z" id="Shape"></path>
                            <path d="M24.53376,28.26624 C24.3912608,28.26624 24.2562592,28.2099904 24.156256,28.1099904 C24.0562528,28.0099904 24.0000064,27.8749888 24.0000064,27.7337344 L24.0000064,26.1337344 C24.0000064,25.8387328 24.2387552,25.5999744 24.5337664,25.5999744 C24.8275168,25.5999744 25.0662784,25.8387232 25.0662784,26.1337344 L25.0662784,27.7337344 C25.0662784,27.8749856 25.0100288,28.009984 24.9100288,28.1099904 C24.8100288,28.2099968 24.6750272,28.26624 24.5337728,28.26624 L24.53376,28.26624 Z" id="Shape"></path>
                            <path d="M26.66624,28.26624 C26.5249888,28.26624 26.3899904,28.2099904 26.289984,28.1099904 C26.1899776,28.0099904 26.1337344,27.8749888 26.1337344,27.7337344 L26.1337344,26.1337344 C26.1337344,25.8387328 26.3724832,25.5999744 26.6662464,25.5999744 C26.961248,25.5999744 27.2000064,25.8387232 27.2000064,26.1337344 L27.2000064,27.7337344 C27.2000064,27.8749856 27.1437568,28.009984 27.0437568,28.1099904 C26.9437568,28.2099968 26.8087552,28.26624 26.6662528,28.26624 L26.66624,28.26624 Z" id="Shape"></path>
                            <path d="M21.33376,12.50112 C21.1475104,12.4998701 20.966272,12.4498688 20.805024,12.3573696 L10.932384,6.6373696 C10.7673856,6.542368 10.6661344,6.3661184 10.6661344,6.1748736 C10.6673846,5.9848736 10.7686336,5.8086336 10.9336352,5.7136256 C11.0986368,5.6186176 11.3023712,5.618624 11.4673952,5.71487552 L21.3336352,11.4310355 L31.1998752,5.71487552 C31.3636256,5.61862592 31.5673632,5.61862592 31.7323872,5.7136256 C31.8973888,5.8086272 31.999888,5.9848768 31.999888,6.1748736 C31.999888,6.3661248 31.8986368,6.5423616 31.7336384,6.6373696 L21.8673984,12.3548096 C21.7048992,12.44856 21.5211584,12.49856 21.3336384,12.5010592 L21.33376,12.50112 Z" id="Shape"></path>
                            <path d="M21.33376,22.4 C21.1912608,22.4 21.0562592,22.3437504 20.956256,22.2437504 C20.8562528,22.1437504 20.8000064,22.0087488 20.8000064,21.8662464 L20.8000064,12.2662464 C20.8000064,11.972496 21.0387552,11.7337344 21.3337664,11.7337344 C21.6275168,11.7337344 21.8662784,11.9724832 21.8662784,12.2662464 L21.8662784,21.8662464 C21.8662784,22.0087456 21.8100288,22.1437472 21.7100288,22.2437504 C21.6100288,22.3437536 21.4750272,22.4 21.3337728,22.4 L21.33376,22.4 Z" id="Shape"></path>
                            <path d="M21.33376,22.4 C21.2462592,22.4 21.1612608,22.3787501 21.0850112,22.3387488 L10.9512512,17.0049888 C10.7762496,16.9124896 10.6662528,16.7312384 10.6662528,16.5337248 L10.6662528,5.8662048 C10.6662528,5.668704 10.7762528,5.4874528 10.9512512,5.3949408 L21.0850112,0.0611808 C21.2400128,-0.0200704 21.4262592,-0.0200704 21.5812672,0.0611808 L31.7150272,5.3949408 C31.8900288,5.48744 32.0000256,5.6686912 32.0000256,5.8662048 L32.0000256,16.5337248 C32.0000256,16.7312256 31.8900256,16.9124768 31.7150272,17.0049888 L21.5812672,22.3387488 C21.5050176,22.3787488 21.420016,22.4 21.3337664,22.4 L21.33376,22.4 Z M11.73376,16.2112 L21.33376,21.26368 L30.93376,16.2112 L30.93376,6.1888 L21.33376,1.13632 L11.73376,6.1888 L11.73376,16.2112 Z" id="Shape"></path>
                        </g>
                    </g>
                </g>
            </g>
        </g>
    </g>
</svg>