<?xml version="1.0" encoding="UTF-8"?>
<svg width="302px" height="570px" viewBox="0 0 302 570" version="1.1" xmlns="http://www.w3.org/2000/svg" xmlns:xlink="http://www.w3.org/1999/xlink">
    <!-- Generator: Sketch 51.2 (57519) - http://www.bohemiancoding.com/sketch -->
    <title>icon/taiwan-planet</title>
    <desc>Created with Sketch.</desc>
    <defs>
        <path d="M269.356963,75.0104032 L269.381723,75.0104032 C268.517671,76.1212036 268.197064,77.5527326 268.493546,78.9105893 L271.638669,93.4608682 L208.045477,121.171179 L255.71942,26.9074732 L257.413876,28.7035531 L257.389751,28.7035531 C258.055725,29.4193175 258.944536,29.8880258 259.906357,30.0855438 L280.213795,34.1584787 L284.704198,41.3662969 L284.728958,41.3415278 C284.852122,41.5638149 285.00068,41.7613328 285.173363,41.9588508 L290.404019,47.9567921 L269.356963,75.0104032 Z M262.2998,165.650194 L245.01813,180.898454 L159.724605,216.714623 L203.162092,130.826061 L273.126159,100.340337 L277.154379,118.972442 L262.2998,165.650194 Z M229.97944,261.194909 L129.225039,316.835912 L136.533609,262.569913 L155.013904,226.029723 L155.066598,226.155474 L242.549774,189.419672 L241.596841,216.746379 L229.97944,261.194909 Z M205.774563,353.798447 L137.319572,395.553492 L136.863104,395.831669 L115.234511,420.713852 L128.34702,323.355275 L129.129174,324.771562 L227.571395,270.407756 L205.774563,353.798447 Z M177.813189,408.71543 L150.498107,433.868803 L150.498107,433.893573 C149.955297,434.387685 149.560411,435.004373 149.289323,435.696003 L128.093074,491.50658 C127.871506,492.074365 127.772467,492.666919 127.772467,493.283607 L128.833327,544.40456 L123.793766,548.073568 L110.803151,453.61552 L113.558467,433.160025 L141.367474,401.167194 L202.150117,364.092881 L177.813189,408.71543 Z M110.796168,557.536013 L106.404169,548.748686 L109.019179,541.738385 L109.043939,541.713616 C109.340421,540.923544 109.414066,540.035031 109.266142,539.196056 L105.910244,521.324808 C105.836599,520.905003 105.688041,520.485198 105.491233,520.090162 L88.7618958,486.594035 C88.3174901,485.754425 87.6756412,485.06343 86.8369841,484.594721 L61.7921809,470.425506 L40.3991232,447.987845 L41.2384152,441.273505 L41.2384152,441.298274 C41.3120596,440.656181 41.263175,439.989955 41.0657318,439.372632 L32.6715422,410.953543 L104.125002,455.689776 L117.415274,552.328143 L118.073629,552.237323 L110.796168,557.536013 Z M10.5172809,376.330103 L19.9685214,331.182957 L19.9685214,331.158188 C20.0421658,330.81269 20.0669255,330.442423 20.0669255,330.072156 L18.9813058,291.811464 C19.1787489,291.145238 20.8071785,286.059944 22.9047736,279.790813 C24.0805443,276.260258 25.430268,272.412151 26.5196969,269.407464 L114.145717,373.040889 L114.764711,372.516927 L104.618293,447.857014 L29.7213229,400.965231 L26.5565191,390.251627 C26.2847968,389.338345 25.7419869,388.49937 24.977609,387.906816 L10.5172809,376.330103 Z M50.9601083,226.004319 C61.5452183,208.157205 71.8840005,190.853741 71.8840005,190.853741 L71.834481,190.853741 C71.8840005,190.779434 71.93352,190.705762 71.9582798,190.631454 L75.4208354,184.027622 L127.550899,277.578103 L115.860488,364.381854 L29.5759387,262.335559 C30.8875706,260.044096 33.2835524,255.890503 36.1055289,251.108155 C40.2753245,243.998778 45.6545386,234.939626 50.9601083,226.004319 Z M107.267586,123.294973 L127.821986,104.880074 L127.846111,104.880074 C128.290517,104.485038 128.635884,104.01633 128.906971,103.498084 L155.013269,52.37713 L157.898098,50.8712936 L181.239557,158.098148 L181.687137,158.000977 L129.851651,260.494387 L129.088543,266.163343 L79.2503432,176.725173 L107.267586,123.294973 Z M178.799769,39.9614424 L207.224596,33.3950812 C208.384495,33.123891 209.42123,32.4328956 210.087204,31.4205366 L224.299934,10.0936765 L224.325964,10.0917711 L239.845882,10.0917711 L250.684938,21.574488 L186.295625,148.889746 L164.237863,47.5623912 L178.799769,39.9614424 Z M300.102222,44.6764695 L292.551769,36.0371223 L287.172554,27.4219091 L287.14843,27.4219091 C286.457696,26.3111087 285.347317,25.5458059 284.064254,25.2746157 L263.213371,21.1032393 L245.284139,2.10594805 C244.397232,1.15328902 243.145912,0.640123358 241.870468,0.640123358 L221.784598,0.637582934 C220.205053,0.637582934 218.724547,1.42765482 217.83637,2.73597322 L203.253513,24.605849 L176.061595,30.8756157 L176.086355,30.9003848 C175.691469,30.9740571 175.296582,31.1220368 174.951216,31.3195548 L149.289323,44.7234673 L149.289323,44.6986982 C148.425907,45.1674064 147.710413,45.8831709 147.266008,46.7475502 L120.888622,98.4362887 L100.334856,116.825784 C99.9152103,117.19605 99.5698435,117.640625 99.2981212,118.134102 L63.668208,186.090446 C63.6186885,186.188888 53.3789453,203.345006 42.7932005,221.166716 C37.4882656,230.102658 32.1090515,239.18658 27.938621,246.295321 C23.7440656,253.428832 21.0293814,258.020649 20.0428006,259.970424 L20.0428006,259.995193 C18.3648515,263.352364 16.1688523,270.066704 13.9233335,276.805179 C11.6778148,283.544289 9.72877818,289.715615 9.72877818,289.715615 L9.72877818,289.690845 C9.5560948,290.209092 9.48181556,290.727338 9.5065753,291.270354 L10.6169548,329.778102 L0.697818577,377.221157 L0.673058828,377.245926 C0.302932329,378.973415 0.944146333,380.77521 2.35100795,381.91078 L17.9204458,394.376641 L31.7135304,441.128065 L30.7269496,449.076417 L30.7269496,449.051648 C30.5542662,450.483812 31.0227969,451.890572 32.0100125,452.902296 L55.4505109,477.463116 L55.4257512,477.463116 C55.7469931,477.808613 56.1171196,478.105208 56.5361307,478.32686 L80.9397199,492.125808 L96.7319954,523.721063 L99.7171323,539.642536 L96.8303996,547.344466 C96.3618689,548.578477 96.4355133,549.936334 97.0278427,551.120807 L104.850019,566.74632 C105.466473,567.980331 106.601612,568.893614 107.958954,569.214342 C109.291537,569.55984 110.722523,569.26388 111.857662,568.449039 L136.40854,550.578426 L136.40854,550.603195 C137.642719,549.689913 138.382972,548.208846 138.358212,546.67824 L137.272592,494.027316 L157.752713,440.116976 L184.820832,415.210659 L184.796708,415.186525 C185.190959,414.816258 185.512201,414.421222 185.758529,413.951879 L212.531435,364.830874 L212.531435,364.855643 C212.728243,364.510145 212.852042,364.139878 212.950446,363.769612 L250.900158,218.650426 C250.974437,218.329063 251.048716,217.983565 251.048716,217.613298 L252.084816,187.276824 L269.529646,171.873598 L269.529646,171.898367 C270.171495,171.330582 270.664786,170.590049 270.911748,169.775843 L286.530706,120.654203 C286.777668,119.864766 286.827188,119.025156 286.654504,118.235084 L278.191114,79.0865136 L300.274905,50.6991799 L300.274905,50.6750458 C301.657007,48.8973841 301.582728,46.3798238 300.102222,44.6764695 Z" id="path-1"></path>
    </defs>
    <g id="1.-web-layout" stroke="none" stroke-width="1" fill="none" fill-rule="evenodd" opacity="0.16">
        <g id="1.-landing-page" transform="translate(-234.000000, -86.000000)">
            <g id="icon/taiwan-planet" transform="translate(100.000000, 86.000000)">
                <g transform="translate(284.999996, 284.999996) rotate(-360.000000) translate(-284.999996, -284.999996) translate(134.357141, 0.000000)" id="color/primary">
                    <g>
                        <mask id="mask-2" fill="white">
                            <use xlink:href="#path-1"></use>
                        </mask>
                        <use id="Mask" fill="#262626" xlink:href="#path-1"></use>
                        <g mask="url(#mask-2)" fill="#262626" fill-rule="nonzero">
                            <g transform="translate(-134.357141, 0.000000)">
                                <rect x="0" y="0" width="569.999993" height="569.999993"></rect>
                            </g>
                        </g>
                    </g>
                </g>
            </g>
        </g>
    </g>
</svg>