<?xml version="1.0" encoding="UTF-8"?>
<svg width="560px" height="560px" viewBox="0 0 560 560" version="1.1" xmlns="http://www.w3.org/2000/svg" xmlns:xlink="http://www.w3.org/1999/xlink">
    <!-- Generator: Sketch 51.3 (57544) - http://www.bohemiancoding.com/sketch -->
    <title>icon/taiwan-planet-solid</title>
    <desc>Created with Sketch.</desc>
    <defs>
        <path d="M254.320419,63.7986874 L254.344747,63.7986874 C253.495781,64.8903249 253.180772,66.2971578 253.472077,67.6315894 L256.562287,81.930854 L194.079413,109.16312 L240.920984,16.5256058 L242.585855,18.2907005 L242.562151,18.2907005 C243.216497,18.994117 244.08979,19.4547393 245.034818,19.6488498 L264.987695,23.6515204 L269.399696,30.7349929 L269.424023,30.710651 C269.545037,30.9291033 269.691002,31.1232138 269.86067,31.3173243 L275,37.211792 L254.320419,63.7986874 Z M247.386472,152.874805 L230.406535,167.86001 L146.602209,203.058295 L189.281291,118.65144 L258.023806,88.6916412 L261.981695,107.002314 L247.386472,152.874805 Z M215.630416,246.771228 L116.635156,301.45234 L123.816121,248.122512 L141.973756,212.212696 L142.02553,212.336277 L227.981275,176.234223 L227.04498,203.089503 L215.630416,246.771228 Z M191.848149,337.777216 L124.588361,378.811923 L124.139863,379.085301 L102.888899,403.538229 L115.772467,307.859235 L116.540965,309.251088 L213.264415,255.825141 L191.848149,337.777216 Z M164.374972,391.746797 L137.536803,416.466237 L137.536803,416.490579 C137.00347,416.976167 136.615479,417.582217 136.349124,418.261915 L115.522955,473.109675 C115.305256,473.667665 115.207946,474.249996 115.207946,474.856045 L116.250284,525.095085 L111.298712,528.700797 L98.534909,435.872293 L101.242118,415.769687 L128.565588,384.328781 L188.286985,347.894055 L164.374972,391.746797 Z M98.5280475,538 L94.2127319,529.364268 L96.782085,522.474906 L96.8064125,522.450564 C97.0977181,521.674122 97.1700767,520.800937 97.0247357,519.976435 L93.7274305,502.413493 C93.6550719,502.00093 93.5091072,501.588368 93.3157352,501.200147 L76.8784875,468.281879 C76.4418409,467.456753 75.8111986,466.777679 74.9871841,466.317056 L50.3796557,452.392281 L29.3601143,430.341704 L30.1847525,423.743196 L30.1847525,423.767538 C30.2571111,423.136523 30.20908,422.48179 30.0150842,421.875117 L21.7674545,393.9463 L91.9733589,437.910765 L105.031586,532.881974 L105.678447,532.792721 L98.5280475,538 Z M0,359.920167 L9.28622465,315.551877 L9.28622465,315.527535 C9.35858322,315.187998 9.38291067,314.824119 9.38291067,314.460239 L8.31624552,276.859602 C8.51024135,276.20487 10.1102391,271.207305 12.1712108,265.046325 C13.3264528,261.576678 14.6526108,257.794956 15.7230186,254.842105 L101.819115,356.687697 L102.427301,356.172773 L92.4580366,430.21313 L18.8687452,384.130301 L15.7591979,373.601523 C15.4922198,372.703997 14.9588872,371.879495 14.2078551,371.297164 L0,359.920167 Z M39.7367078,212.18773 C50.1370049,194.648505 60.2952751,177.643553 60.2952751,177.643553 L60.2466202,177.643553 C60.2952751,177.570527 60.34393,177.498126 60.3682575,177.4251 L63.7703579,170.935194 L114.990246,262.871788 L103.503947,348.178043 L18.7258994,247.892201 C20.0146305,245.640269 22.3687792,241.558332 25.1414848,236.858486 C29.2384771,229.871757 34.5237717,220.968889 39.7367078,212.18773 Z M95.0610738,111.250276 L115.256601,93.1530616 L115.280304,93.1530616 C115.716951,92.7648407 116.056288,92.3042183 116.322642,91.7949124 L141.973132,41.5558724 L144.807592,40.076014 L167.741517,145.453043 L168.181282,145.357548 L117.250828,246.082791 L116.501043,251.65395 L67.5330037,163.758723 L95.0610738,111.250276 Z M165.344327,29.3543742 L193.272864,22.9012927 C194.412512,22.6347809 195.431146,21.9557063 196.085492,20.960812 L210.050073,0.00187244844 L210.075648,1.27897692e-13 L225.324593,1.27897692e-13 L235.974402,11.2846226 L172.709307,136.4035 L151.036667,36.8241952 L165.344327,29.3543742 Z" id="path-1"></path>
    </defs>
    <g id="Page-1" stroke="none" stroke-width="1" fill="none" fill-rule="evenodd">
        <g id="icon/taiwan-planet-solid">
            <g id="color/secondary" transform="translate(142.000000, 11.000000)">
                <mask id="mask-2" fill="white">
                    <use xlink:href="#path-1"></use>
                </mask>
                <use id="Mask" fill="#469800" fill-rule="nonzero" xlink:href="#path-1"></use>
                <g mask="url(#mask-2)" fill="#469800" fill-rule="nonzero" id="color/primary">
                    <g transform="translate(-142.000000, -11.000000)">
                        <rect x="0" y="0" width="560" height="560"></rect>
                    </g>
                </g>
            </g>
        </g>
    </g>
</svg>